<?xml version="1.0" encoding="UTF-8" standalone="no"?>
<svg
   xmlns:dc="http://purl.org/dc/elements/1.1/"
   xmlns:cc="http://creativecommons.org/ns#"
   xmlns:rdf="http://www.w3.org/1999/02/22-rdf-syntax-ns#"
   xmlns:svg="http://www.w3.org/2000/svg"
   xmlns="http://www.w3.org/2000/svg"
   xmlns:sodipodi="http://sodipodi.sourceforge.net/DTD/sodipodi-0.dtd"
   xmlns:inkscape="http://www.inkscape.org/namespaces/inkscape"
   inkscape:export-ydpi="241.905"
   inkscape:export-xdpi="241.905"
   inkscape:export-filename="C:\Users\260862\Desktop\bartender.png"
   width="69.205215mm"
   height="137.94514mm"
   viewBox="0 0 69.205215 137.94515"
   version="1.1"
   id="svg8"
   inkscape:version="1.0 (4035a4fb49, 2020-05-01)"
   sodipodi:docname="korpus.svg">
  <defs
     id="defs2">
    <clipPath
       clipPathUnits="userSpaceOnUse"
       id="clipPath4045">
      <path
         style="fill:none;stroke:#000000;stroke-width:0.264583px;stroke-linecap:butt;stroke-linejoin:miter;stroke-opacity:1"
         d="M 87.197134,57.598109 C 88.69643,71.309833 86.336415,84.020996 68.797741,92.79695 L 14.399527,175.72756 -18.399396,142.39532 27.465763,50.665004 Z"
         id="path4047"
         sodipodi:nodetypes="cccccc" />
    </clipPath>
  </defs>
  <sodipodi:namedview
     inkscape:guide-bbox="true"
     showguides="true"
     id="base"
     pagecolor="#ffffff"
     bordercolor="#666666"
     borderopacity="1.0"
     inkscape:pageopacity="0.0"
     inkscape:pageshadow="2"
     inkscape:zoom="0.58981277"
     inkscape:cx="66.832385"
     inkscape:cy="462.89283"
     inkscape:document-units="mm"
     inkscape:current-layer="layer7"
     inkscape:document-rotation="0"
     showgrid="false"
     inkscape:snap-others="true"
     inkscape:object-nodes="true"
     inkscape:snap-global="false"
     inkscape:window-width="1920"
     inkscape:window-height="1001"
     inkscape:window-x="-9"
     inkscape:window-y="-9"
     inkscape:window-maximized="1" />
  <metadata
     id="metadata5">
    <rdf:RDF>
      <cc:Work
         rdf:about="">
        <dc:format>image/svg+xml</dc:format>
        <dc:type
           rdf:resource="http://purl.org/dc/dcmitype/StillImage" />
        <dc:title></dc:title>
      </cc:Work>
    </rdf:RDF>
  </metadata>
  <g
     transform="translate(-71.584046,-44.24915)"
     inkscape:label="noga2"
     id="layer5"
     inkscape:groupmode="layer" />
  <g
     transform="translate(-71.584046,-44.24915)"
     inkscape:label="noga1"
     id="layer4"
     inkscape:groupmode="layer" />
  <g
     sodipodi:insensitive="true"
     transform="translate(-71.584046,-44.24915)"
     inkscape:label="korpus"
     id="layer8"
     inkscape:groupmode="layer">
    <g
       inkscape:transform-center-y="-48.671872"
       inkscape:transform-center-x="1.5700604"
       id="g963">
      <path
         style="fill:#f7ac79;fill-opacity:1;stroke:none;stroke-width:0.264583px;stroke-linecap:butt;stroke-linejoin:miter;stroke-opacity:1"
         d="M 90.420241,55.461905 C 93.552597,53.398932 101.8728,58.836796 103.67156,44.24915 l 11.37066,0.235038 c 0.75655,10.549845 5.2866,11.354298 10.73115,10.295623 9.82258,15.490363 20.70563,35.581352 7.54581,48.686899 l -6.98282,45.0987 -38.175595,0.37798 C 74.953665,74.71246 72.235846,98.015417 90.420241,55.461905 Z"
         id="path895-3"
         sodipodi:nodetypes="cccccccc" />
      <rect
         style="opacity:0.99;fill:#aa9a65;fill-opacity:1;stroke:none;stroke-width:0.264583;stroke-dasharray:0.264583, 0.529167"
         id="rect1426-4-1-3-4"
         width="18.666054"
         height="1.1999606"
         x="47.923203"
         y="124.15797"
         transform="rotate(-28.20864)" />
      <path
         sodipodi:nodetypes="cccccccccc"
         id="path1422-5"
         d="m 90.702805,54.041957 c 3.4011,6.671922 4.87171,13.52819 9.24454,16.448704 0.489585,11.200851 3.998845,7.903776 7.989855,15.603202 4.13944,-6.925395 7.25691,-5.524655 8.38906,-16.45979 2.96319,-1.951059 7.34747,-9.855915 7.56233,-16.20492 l 14.79392,7.211782 c -4.23214,12.897296 -13.51782,38.760096 -2.30557,105.938825 l -56.75752,2.44891 C 85.533449,122.41833 85.182555,87.002186 77.161365,59.173029 Z"
         style="fill:#aa9a65;fill-opacity:1;stroke:none;stroke-width:0.264583px;stroke-linecap:butt;stroke-linejoin:miter;stroke-opacity:1" />
      <path
         sodipodi:nodetypes="ccccc"
         id="path1652-5"
         d="m 87.853265,154.03978 c 13.885195,1.16543 25.673875,1.02316 41.549915,-0.57162 l 0.30036,-3.29988 -42.311405,0.0306 z"
         style="fill:#000000;stroke:none;stroke-width:0.264583px;stroke-linecap:butt;stroke-linejoin:miter;stroke-opacity:1" />
      <rect
         style="opacity:0.99;fill:#aa8800;fill-opacity:1;stroke:none;stroke-width:0.264583;stroke-miterlimit:4;stroke-dasharray:0.264583, 0.529167;stroke-dashoffset:0;stroke-opacity:1"
         id="rect893-2"
         width="9.3544331"
         height="2.6726952"
         x="103.80711"
         y="151.06644" />
      <rect
         transform="rotate(26.612994)"
         y="25.81741"
         x="125.20113"
         height="1.1999606"
         width="18.666054"
         id="rect1426-4-1-7"
         style="opacity:0.99;fill:#aa9a65;fill-opacity:1;stroke:none;stroke-width:0.264583;stroke-dasharray:0.264583, 0.529167" />
      <rect
         transform="rotate(11.845872)"
         y="47.914333"
         x="111.17232"
         height="1.1999606"
         width="18.666054"
         id="rect1426-6"
         style="opacity:0.99;fill:#aa9a65;fill-opacity:1;stroke:none;stroke-width:0.264583;stroke-dasharray:0.264583, 0.529167" />
      <rect
         style="opacity:0.99;fill:#aa9a65;fill-opacity:1;stroke:none;stroke-width:0.264583;stroke-dasharray:0.264583, 0.529167"
         id="rect1426-7-9"
         width="18.666054"
         height="1.1999606"
         x="79.269913"
         y="94.701584"
         transform="rotate(-13.482039)" />
      <rect
         style="opacity:0.99;fill:#aa9a65;fill-opacity:1;stroke:none;stroke-width:0.264583;stroke-dasharray:0.264583, 0.529167"
         id="rect1426-4-6"
         width="18.666054"
         height="1.1999606"
         x="116.79109"
         y="40.041523"
         transform="rotate(17.746836)" />
      <rect
         transform="rotate(-18.035543)"
         y="106.46539"
         x="70.509361"
         height="1.1999606"
         width="18.666054"
         id="rect1426-7-7-9"
         style="opacity:0.99;fill:#aa9a65;fill-opacity:1;stroke:none;stroke-width:0.264583;stroke-dasharray:0.264583, 0.529167" />
      <g
         id="g3248"
         transform="matrix(1.3162758,0,0,0.83343021,-198.17811,1.452686)">
        <path
           sodipodi:nodetypes="ssssssssscssssssssczzcssssssszcss"
           id="path1654"
           d="m 215.27388,64.906307 c 0.95922,-0.04277 17.31626,46.818063 17.04013,47.853793 -1.33337,5.00134 0.33649,14.59354 0.20597,19.23365 -0.13052,4.64012 -1.86716,9.02451 -0.0256,17.59286 0.19169,0.89186 -0.91869,9.40282 -0.0367,14.45702 0.47143,2.70141 -1.55823,8.28906 0.18996,14.30263 0.39194,1.34822 -0.38956,6.91847 0.20295,16.87544 0.29015,4.87599 -0.69383,8.41424 -0.55979,8.9491 0.26808,1.06972 0.65994,6.17935 0.70375,7.38209 0.0438,1.20274 0.97609,0.18516 0.97609,0.18516 0.38496,-0.72892 -0.0677,-5.73972 0.16764,-7.25024 0.0874,-0.5609 -0.86191,-8.25443 -0.74061,-9.67959 0.87723,-10.30644 -0.61539,-15.63285 -0.0391,-16.29994 2.059,-2.38323 -0.40819,-13.67285 -0.18491,-14.09014 2.20687,-4.12449 0.0207,-14.31816 0.22697,-15.12256 1.49957,-5.84781 -0.49388,-12.91003 -0.13789,-17.22599 0.46766,-5.66994 0.89843,-15.3171 0.24741,-19.14927 -0.31349,-1.84532 14.38286,-49.279483 15.34025,-49.66771 1.91479,-0.776457 8.66962,2.086286 8.66962,2.086286 0,0 -1.16245,82.995454 -4.79826,86.646324 -3.63581,3.65087 -0.19068,3.90913 2.23596,17.7385 2.42663,13.82937 1.42742,22.2069 1.42742,22.2069 0.3536,3.71807 0.70051,8.52611 0.34913,10.69631 -0.75094,4.63789 -1.87657,5.8159 -2.80457,7.2971 -0.88227,1.40821 -6.83279,1.29848 -6.83279,1.29848 -0.32575,-0.694 -16.84649,0.65269 -18.92929,1.25318 -8.3312,2.40195 -13.83584,-1.75383 -15.94691,-5.02161 -1.05554,-1.63389 -2.64709,-1.05275 -3.00978,-13.7641 -0.35845,-12.563 1.28355,-24.755 1.72375,-27.18867 0.85313,-4.71661 1.97697,-8.66176 0.45633,-16.57655 -1.52065,-7.91479 -6.44752,-80.793615 -6.44752,-80.793615 0,0 8.41184,-4.139288 10.33029,-4.224838 z"
           style="fill:#564738;fill-opacity:1;stroke:none;stroke-width:0.264583px;stroke-linecap:butt;stroke-linejoin:miter;stroke-opacity:1" />
        <path
           sodipodi:nodetypes="czzzczc"
           id="path1656"
           d="m 211.41584,154.68123 c 0,0 -1.11951,2.3524 1.13196,3.08869 2.25148,0.73629 19.97895,0.68565 19.88002,1.17012 -0.0989,0.48447 18.39955,-2.9842 20.20576,-3.63123 1.80621,-0.64703 0.60917,-2.79332 0.60917,-2.79332 0,0 -13.72515,2.60817 -20.69631,2.96912 -6.97115,0.36096 -21.1306,-0.80338 -21.1306,-0.80338 z"
           style="fill:#321a05;fill-opacity:1;stroke:none;stroke-width:0.195693px;stroke-linecap:butt;stroke-linejoin:miter;stroke-opacity:1" />
        <path
           id="path1681"
           d="m 244.29982,156.56408 c -1.55358,1.4962 -3.45391,14.07858 -1.76061,16.12091 1.6933,2.04233 1.08846,0.72161 2.19748,-1.62201 1.10902,-2.34362 1.2987,-13.56986 1.2987,-13.56986 0,0 1.04852,2.40027 2.90398,7.88098 1.85546,5.48071 -2.18704,31.79536 0.26955,27.87526 2.45658,-3.92009 1.54026,-33.47321 -2.29626,-37.00025 -3.83652,-3.52704 -1.63464,0.62593 -2.07885,0.58031 -0.44421,-0.0456 1.01959,-1.76154 -0.53399,-0.26534 z"
           style="fill:#321a05;fill-opacity:1;stroke:none;stroke-width:0.264583px;stroke-linecap:butt;stroke-linejoin:miter;stroke-opacity:1"
           sodipodi:nodetypes="zzzczzzzz" />
      </g>
      <path
         style="fill:#321a05;fill-opacity:1;stroke-width:0.1"
         id="path887"
         d="m 104.5325,95.984482 c 0.46083,-0.224205 0.91544,-0.460221 1.38176,-0.673034 0.28793,-0.116604 0.57695,-0.240498 0.88079,-0.310861 0.13929,-0.03226 0.26514,-0.04677 0.40788,-0.06739 0.48983,-0.0661 0.98311,-0.09841 1.4738,-0.156279 0.20086,-0.02474 0.40159,-0.05114 0.60361,-0.06424 0.0991,-0.009 0.19723,0.0083 0.29403,0.02758 0.16845,0.03105 0.32456,0.101878 0.47675,0.177763 0.16093,0.07418 0.30697,0.174657 0.45342,0.273333 0.17128,0.114853 0.35263,0.214061 0.53115,0.317151 0.20323,0.122256 0.38882,0.277362 0.5419,0.458652 0.0759,0.135636 0.0521,0.212868 -0.0782,0.289224 -0.019,0.01058 -0.0384,0.02035 -0.0569,0.03175 -0.0194,0.01196 -0.0372,0.02638 -0.0566,0.03829 -0.0195,0.01196 -0.0799,0.0449 -0.0602,0.03326 0.69867,-0.411982 0.48441,-0.257749 0.29386,-0.194659 -0.0613,0.01442 -0.16191,0.02851 -0.19631,-0.04386 -0.007,-0.01445 -0.007,-0.03123 -0.0104,-0.04685 -0.005,-0.05875 -0.002,-0.122111 0.0135,-0.179427 0.0149,-0.05386 0.0462,-0.105442 0.0648,-0.158404 0.0325,-0.127733 0.008,-0.202409 -0.047,-0.316828 -0.0516,-0.106521 -0.0698,-0.223581 -0.0888,-0.339217 -0.01,-0.137517 -0.0536,-0.219622 -0.16567,-0.296651 -0.0968,-0.05272 -0.20678,-0.05848 -0.31448,-0.06273 -0.1753,-0.01098 -0.31225,0.007 -0.47592,0.0717 -0.25954,0.132778 -0.50682,0.271719 -0.72653,0.459277 -0.13662,0.116628 0.041,-0.02291 -0.12472,0.104023 -0.22648,0.163703 -0.45098,0.329674 -0.66937,0.504095 -0.2816,0.222179 -0.56399,0.442989 -0.85045,0.658834 -0.1201,0.08018 -0.23185,0.171611 -0.35334,0.249774 -0.0301,0.01939 -0.12274,0.07392 -0.0919,0.05567 0.40682,-0.240768 0.5092,-0.274241 0.29086,-0.191111 -0.17892,0.05572 -0.36137,0.05441 -0.544,0.02265 -0.19616,-0.04089 -0.38886,-0.10024 -0.5697,-0.186663 -0.18144,-0.09979 -0.35995,-0.21439 -0.50553,-0.363511 -0.0329,-0.03371 -0.0622,-0.07081 -0.0932,-0.106223 -0.18361,-0.254312 -0.3327,-0.530775 -0.50095,-0.794999 -0.15844,-0.240691 -0.32827,-0.474419 -0.48117,-0.718648 -0.0143,-0.02798 -0.0302,-0.05523 -0.0429,-0.08395 -0.009,-0.01953 -0.0386,-0.07982 -0.0184,-0.10885 0.008,-0.01164 0.0501,-0.02651 0.0381,-0.01897 -0.42089,0.263768 -0.57504,0.294325 -0.35038,0.239532 0.15021,-0.01519 0.28082,0.05208 0.39021,0.14917 0.10176,0.122139 0.13864,0.270425 0.1593,0.424158 0.0172,0.174961 0.0143,0.350983 0.0155,0.526542 -0.007,0.112181 0.006,0.226156 -0.003,0.338191 -0.001,0.01244 -0.0218,0.127765 -0.0235,0.137501 -0.0168,0.136025 -0.0875,0.253368 -0.16726,0.361715 -0.0725,0.107772 -0.15882,0.200498 -0.20916,0.321677 -0.065,0.112194 -0.0694,0.242105 -0.0959,0.366171 -0.0319,0.207798 -0.0938,0.408106 -0.1433,0.611814 -0.0454,0.147865 -0.08,0.29777 -0.0946,0.451766 0.009,0.132643 0.0402,0.262281 0.0822,0.38803 0.051,0.132413 0.0695,0.272494 0.0928,0.411347 0.0247,0.161764 0.0401,0.325149 0.0719,0.485683 0.0359,0.160951 0.059,0.324135 0.0714,0.488471 -0.003,0.0639 0.002,0.03481 -0.0139,0.08783 0,0 0.49253,-0.23897 0.49253,-0.23897 v 0 c 0.007,-0.06306 0.005,-0.02982 0.003,-0.09978 -0.0171,-0.165004 -0.044,-0.328543 -0.078,-0.490942 -0.029,-0.160914 -0.043,-0.324228 -0.068,-0.485849 -0.0209,-0.141994 -0.0477,-0.282813 -0.0968,-0.418269 -0.0352,-0.120264 -0.0692,-0.243012 -0.0706,-0.369184 0.017,-0.150069 0.0512,-0.296603 0.0917,-0.442002 0.0513,-0.203976 0.10658,-0.406546 0.14423,-0.613725 0.0279,-0.122148 0.044,-0.247274 0.10637,-0.358278 0.0578,-0.112882 0.14396,-0.205168 0.21099,-0.312404 0.0761,-0.118811 0.14465,-0.239054 0.15714,-0.382807 0.0266,-0.159859 0.0194,-0.320252 0.0187,-0.481923 0.001,-0.178096 0.003,-0.35702 -0.0168,-0.534265 -0.0236,-0.166195 -0.0693,-0.32399 -0.17673,-0.457128 -0.11431,-0.10854 -0.2546,-0.18804 -0.41607,-0.189791 -0.26048,0.01455 -0.11997,-0.0039 -0.58673,0.299966 -0.0161,0.01048 -0.0188,0.03455 -0.0211,0.05361 -0.009,0.07717 0.0563,0.149442 0.0858,0.212894 0.15654,0.242036 0.3317,0.472043 0.488,0.714431 0.1674,0.267724 0.32126,0.544049 0.50208,0.803206 0.0315,0.03772 0.0606,0.07751 0.0945,0.113152 0.14608,0.153958 0.32924,0.270063 0.50954,0.378706 0.18243,0.09327 0.37793,0.154265 0.57804,0.198064 0.18654,0.04156 0.37166,0.04949 0.55864,0.0016 0.39445,-0.120624 0.73226,-0.404056 1.06688,-0.639125 0.28659,-0.216644 0.56781,-0.440047 0.85143,-0.660564 0.22279,-0.175215 0.45221,-0.341149 0.68091,-0.508466 0.0621,-0.04993 0.12234,-0.101893 0.18514,-0.150886 0.14653,-0.114322 0.45379,-0.300234 -0.25576,0.121658 0.15729,-0.07584 0.28222,-0.09896 0.45633,-0.08701 0.0998,0.0024 0.20226,0.0026 0.29642,0.03988 0.11266,0.06456 0.13274,0.125841 0.14642,0.254569 0.0192,0.121356 0.0376,0.242993 0.0933,0.354195 0.045,0.09615 0.0644,0.173561 0.0278,0.277757 -0.0471,0.118922 -0.0883,0.237683 -0.0632,0.367964 0.007,0.02225 0.01,0.04589 0.0201,0.06676 0.0438,0.08947 0.14488,0.108411 0.23405,0.09659 0.30173,-0.07925 0.55393,-0.278508 0.81596,-0.442055 0.0159,-0.01476 0.0338,-0.02752 0.0475,-0.04431 0.0801,-0.09827 0.0504,-0.225449 -0.0138,-0.321741 -0.16071,-0.181745 -0.35034,-0.341231 -0.55558,-0.470218 -0.17371,-0.107712 -0.35484,-0.203602 -0.52413,-0.318024 -0.14746,-0.100851 -0.29568,-0.202959 -0.45742,-0.279738 -0.15504,-0.07497 -0.3108,-0.152779 -0.4794,-0.192638 -0.1,-0.02098 -0.20104,-0.04646 -0.30401,-0.03804 -0.20943,0.01217 -0.41651,0.04594 -0.62408,0.07504 -0.4915,0.06784 -0.98639,0.102513 -1.47915,0.160142 -0.1386,0.01598 -0.2693,0.02691 -0.4053,0.05674 -0.31305,0.06866 -0.60789,0.203441 -0.90492,0.319172 -0.45392,0.204743 -0.89674,0.431736 -1.34604,0.646131 0,0 -0.42589,0.33659 -0.42589,0.33659 z" />
      <path
         style="fill:#321a05;fill-opacity:1;stroke-width:0.1"
         id="path889"
         d="m 105.48023,95.243339 c 0.26186,0.03208 0.51461,0.111337 0.77401,0.158964 0.23024,0.02992 0.45941,0.0676 0.68964,0.09755 0.22985,0.05746 0.4537,0.121388 0.68982,0.148992 0.28495,0.0373 0.57088,0.01463 0.8558,-0.0073 0.22461,-0.01939 0.44991,-0.02734 0.67525,-0.03111 0.2104,-0.0026 0.42082,-0.0021 0.63123,-0.0026 0.58593,0.02737 0.98498,-0.203092 1.44342,-0.70943 0.4086,-0.112519 -0.0276,0.0026 -0.87517,0.503502 -0.008,0.0048 0.008,0.01699 0.0105,0.02611 0.007,0.02787 0.0118,0.0561 0.0156,0.08447 0.0138,0.101873 0.015,0.162899 0.0207,0.266848 0.0101,0.272577 0.006,0.545399 0.005,0.818089 0.008,0.299535 -0.012,0.599943 0.009,0.898898 0.0353,0.261922 0.0244,0.529265 0.0765,0.788297 0,0 0.95937,-0.510471 0.95937,-0.510471 v 0 c -0.04,-0.256789 -0.0438,-0.518374 -0.072,-0.776708 -0.0169,-0.297328 -0.006,-0.595342 -0.005,-0.892985 0.001,-0.274272 7.9e-4,-0.548637 -0.01,-0.822748 -0.0384,-0.675987 -0.17308,-0.949815 -1.14353,0.03919 -0.28918,0.307252 -0.0657,0.05639 0.80233,-0.41183 0.0219,-0.0118 -0.0372,0.03462 -0.0603,0.04379 -0.0921,0.03659 -0.20015,0.0021 -0.29491,0.01421 -0.21071,-5.29e-4 -0.42143,-0.0011 -0.63213,0.0011 -0.2275,0.0031 -0.4551,0.0075 -0.68193,0.0269 -0.28141,0.025 -0.56367,0.05942 -0.84603,0.02572 -0.23502,-0.02318 -0.46113,-0.07288 -0.68438,-0.151286 -0.23104,-0.02532 -0.4591,-0.06974 -0.6907,-0.09015 -0.25906,-0.041 -0.50975,-0.11321 -0.7648,-0.169103 0,0 -0.89783,0.633042 -0.89783,0.633042 z" />
      <path
         d="m 104.52465,111.53187 c 0.46083,-0.2242 0.91544,-0.46022 1.38176,-0.67303 0.28793,-0.11661 0.57695,-0.2405 0.88079,-0.31086 0.13929,-0.0323 0.26514,-0.0468 0.40788,-0.0674 0.48983,-0.0661 0.98311,-0.0984 1.4738,-0.15628 0.20086,-0.0247 0.40159,-0.0511 0.60361,-0.0642 0.0991,-0.009 0.19723,0.008 0.29403,0.0276 0.16845,0.0311 0.32456,0.10188 0.47675,0.17776 0.16093,0.0742 0.30697,0.17466 0.45342,0.27333 0.17128,0.11486 0.35263,0.21407 0.53115,0.31716 0.20323,0.12225 0.38882,0.27736 0.5419,0.45865 0.0759,0.13563 0.0521,0.21287 -0.0782,0.28922 -0.019,0.0106 -0.0384,0.0203 -0.0569,0.0318 -0.0194,0.012 -0.0372,0.0264 -0.0566,0.0383 -0.0195,0.012 -0.0799,0.0449 -0.0602,0.0333 0.69867,-0.41198 0.48441,-0.25775 0.29386,-0.19466 -0.0613,0.0144 -0.16191,0.0285 -0.19631,-0.0439 -0.007,-0.0144 -0.007,-0.0312 -0.0104,-0.0468 -0.005,-0.0588 -0.002,-0.12211 0.0135,-0.17942 0.0149,-0.0539 0.0462,-0.10545 0.0648,-0.15841 0.0325,-0.12773 0.008,-0.20241 -0.047,-0.31683 -0.0516,-0.10652 -0.0698,-0.22358 -0.0888,-0.33921 -0.01,-0.13752 -0.0536,-0.21963 -0.16567,-0.29665 -0.0968,-0.0527 -0.20678,-0.0585 -0.31448,-0.0627 -0.1753,-0.011 -0.31225,0.007 -0.47592,0.0717 -0.25954,0.13277 -0.50682,0.27171 -0.72653,0.45927 -0.13662,0.11663 0.041,-0.0229 -0.12472,0.10403 -0.22648,0.1637 -0.45098,0.32967 -0.66937,0.50409 -0.2816,0.22218 -0.56399,0.44299 -0.85045,0.65883 -0.1201,0.0802 -0.23185,0.17162 -0.35334,0.24978 -0.0301,0.0194 -0.12274,0.0739 -0.0919,0.0557 0.40682,-0.24077 0.5092,-0.27424 0.29086,-0.19111 -0.17892,0.0557 -0.36137,0.0544 -0.544,0.0226 -0.19616,-0.0409 -0.38886,-0.10024 -0.5697,-0.18667 -0.18144,-0.0998 -0.35995,-0.21439 -0.50553,-0.36351 -0.0329,-0.0337 -0.0622,-0.0708 -0.0932,-0.10622 -0.18361,-0.25431 -0.3327,-0.53077 -0.50095,-0.795 -0.15844,-0.24069 -0.32827,-0.47442 -0.48117,-0.71865 -0.0143,-0.028 -0.0302,-0.0552 -0.0429,-0.084 -0.009,-0.0195 -0.0386,-0.0798 -0.0184,-0.10885 0.008,-0.0116 0.0501,-0.0265 0.0381,-0.019 -0.42089,0.26377 -0.57504,0.29433 -0.35038,0.23954 0.15021,-0.0152 0.28082,0.0521 0.39021,0.14917 0.10176,0.12213 0.13864,0.27042 0.1593,0.42415 0.0172,0.17496 0.0143,0.35099 0.0155,0.52655 -0.007,0.11218 0.006,0.22615 -0.003,0.33819 -10e-4,0.0124 -0.0218,0.12776 -0.0235,0.1375 -0.0168,0.13602 -0.0875,0.25337 -0.16726,0.36171 -0.0725,0.10777 -0.15882,0.2005 -0.20916,0.32168 -0.065,0.11219 -0.0694,0.2421 -0.0959,0.36617 -0.0319,0.2078 -0.0938,0.40811 -0.1433,0.61181 -0.0454,0.14787 -0.08,0.29777 -0.0946,0.45177 0.009,0.13264 0.0402,0.26228 0.0822,0.38803 0.051,0.13241 0.0695,0.27249 0.0928,0.41135 0.0247,0.16176 0.0401,0.32515 0.0719,0.48568 0.0359,0.16095 0.059,0.32414 0.0714,0.48847 -0.003,0.0639 0.002,0.0348 -0.0139,0.0878 0,0 0.49253,-0.23898 0.49253,-0.23898 v 0 c 0.007,-0.0631 0.005,-0.0298 0.003,-0.0998 -0.0171,-0.16501 -0.044,-0.32855 -0.078,-0.49094 -0.029,-0.16092 -0.043,-0.32423 -0.068,-0.48585 -0.0209,-0.142 -0.0477,-0.28282 -0.0968,-0.41827 -0.0352,-0.12027 -0.0692,-0.24301 -0.0706,-0.36919 0.017,-0.15007 0.0512,-0.2966 0.0917,-0.442 0.0513,-0.20397 0.10658,-0.40654 0.14423,-0.61372 0.0279,-0.12215 0.044,-0.24728 0.10637,-0.35828 0.0578,-0.11288 0.14396,-0.20517 0.21099,-0.31241 0.0761,-0.11881 0.14465,-0.23905 0.15714,-0.3828 0.0266,-0.15986 0.0194,-0.32025 0.0187,-0.48193 10e-4,-0.17809 0.003,-0.35702 -0.0168,-0.53426 -0.0236,-0.1662 -0.0693,-0.32399 -0.17673,-0.45713 -0.11431,-0.10854 -0.2546,-0.18804 -0.41607,-0.18979 -0.26048,0.0145 -0.11997,-0.004 -0.58673,0.29997 -0.0161,0.0105 -0.0188,0.0345 -0.0211,0.0536 -0.009,0.0772 0.0563,0.14944 0.0858,0.21289 0.15654,0.24204 0.3317,0.47204 0.488,0.71443 0.1674,0.26773 0.32126,0.54405 0.50208,0.80321 0.0315,0.0377 0.0606,0.0775 0.0945,0.11315 0.14608,0.15396 0.32924,0.27006 0.50954,0.37871 0.18243,0.0933 0.37793,0.15426 0.57804,0.19806 0.18654,0.0416 0.37166,0.0495 0.55864,0.002 0.39445,-0.12062 0.73226,-0.40406 1.06688,-0.63913 0.28659,-0.21664 0.56781,-0.44004 0.85143,-0.66056 0.22279,-0.17521 0.45221,-0.34115 0.68091,-0.50847 0.0621,-0.0499 0.12234,-0.10189 0.18514,-0.15088 0.14653,-0.11432 0.45379,-0.30024 -0.25576,0.12166 0.15729,-0.0758 0.28222,-0.099 0.45633,-0.087 0.0998,0.002 0.20226,0.003 0.29642,0.0399 0.11266,0.0646 0.13274,0.12584 0.14642,0.25457 0.0192,0.12135 0.0376,0.24299 0.0933,0.35419 0.045,0.0961 0.0644,0.17356 0.0278,0.27776 -0.0471,0.11892 -0.0883,0.23768 -0.0632,0.36796 0.007,0.0222 0.01,0.0459 0.0201,0.0668 0.0438,0.0895 0.14488,0.10841 0.23405,0.0966 0.30173,-0.0793 0.55393,-0.27851 0.81596,-0.44205 0.0159,-0.0148 0.0338,-0.0275 0.0475,-0.0443 0.0801,-0.0983 0.0504,-0.22545 -0.0138,-0.32174 -0.16071,-0.18174 -0.35034,-0.34123 -0.55558,-0.47021 -0.17371,-0.10771 -0.35484,-0.2036 -0.52413,-0.31803 -0.14746,-0.10085 -0.29568,-0.20296 -0.45742,-0.27973 -0.15504,-0.075 -0.3108,-0.15278 -0.4794,-0.19264 -0.1,-0.021 -0.20104,-0.0465 -0.30401,-0.038 -0.20943,0.0122 -0.41651,0.0459 -0.62408,0.075 -0.4915,0.0678 -0.98639,0.10251 -1.47915,0.16014 -0.1386,0.016 -0.2693,0.0269 -0.4053,0.0567 -0.31305,0.0687 -0.60789,0.20344 -0.90492,0.31917 -0.45392,0.20474 -0.89674,0.43174 -1.34604,0.64613 0,0 -0.42589,0.33659 -0.42589,0.33659 z"
         id="path887-8"
         style="fill:#321a05;fill-opacity:1;stroke-width:0.1" />
      <path
         d="m 105.47238,110.79073 c 0.26186,0.0321 0.51461,0.11134 0.77401,0.15896 0.23024,0.0299 0.45941,0.0676 0.68964,0.0975 0.22985,0.0575 0.4537,0.12139 0.68982,0.149 0.28495,0.0373 0.57088,0.0146 0.8558,-0.007 0.22461,-0.0194 0.44991,-0.0273 0.67525,-0.0311 0.2104,-0.003 0.42082,-0.002 0.63123,-0.003 0.58593,0.0274 0.98498,-0.2031 1.44342,-0.70943 0.4086,-0.11252 -0.0276,0.003 -0.87517,0.5035 -0.008,0.005 0.008,0.017 0.0105,0.0261 0.007,0.0279 0.0118,0.0561 0.0156,0.0845 0.0138,0.10187 0.015,0.1629 0.0207,0.26685 0.0101,0.27257 0.006,0.54539 0.005,0.81808 0.008,0.29954 -0.012,0.59995 0.009,0.8989 0.0353,0.26192 0.0244,0.52927 0.0765,0.7883 0,0 0.95937,-0.51047 0.95937,-0.51047 v 0 c -0.04,-0.25679 -0.0438,-0.51838 -0.072,-0.77671 -0.0169,-0.29733 -0.006,-0.59534 -0.005,-0.89298 10e-4,-0.27428 7.9e-4,-0.54864 -0.01,-0.82275 -0.0384,-0.67599 -0.17308,-0.94982 -1.14353,0.0392 -0.28918,0.30725 -0.0657,0.0564 0.80233,-0.41183 0.0219,-0.0118 -0.0372,0.0346 -0.0603,0.0438 -0.0921,0.0366 -0.20015,0.002 -0.29491,0.0142 -0.21071,-5.3e-4 -0.42143,-10e-4 -0.63213,0.001 -0.2275,0.003 -0.4551,0.008 -0.68193,0.0269 -0.28141,0.025 -0.56367,0.0594 -0.84603,0.0257 -0.23502,-0.0232 -0.46113,-0.0729 -0.68438,-0.15129 -0.23104,-0.0253 -0.4591,-0.0697 -0.6907,-0.0901 -0.25906,-0.041 -0.50975,-0.11321 -0.7648,-0.1691 0,0 -0.89783,0.63304 -0.89783,0.63304 z"
         id="path889-5"
         style="fill:#321a05;fill-opacity:1;stroke-width:0.1" />
      <path
         style="fill:#321a05;fill-opacity:1;stroke-width:0.1"
         id="path887-8-7"
         d="m 104.71743,126.60487 c 0.46083,-0.2242 0.91544,-0.46022 1.38176,-0.67303 0.28793,-0.11661 0.57695,-0.2405 0.88079,-0.31086 0.13929,-0.0323 0.26514,-0.0468 0.40788,-0.0674 0.48983,-0.0661 0.98311,-0.0984 1.4738,-0.15628 0.20086,-0.0247 0.40159,-0.0511 0.60361,-0.0642 0.0991,-0.009 0.19723,0.008 0.29403,0.0276 0.16845,0.0311 0.32456,0.10188 0.47675,0.17776 0.16093,0.0742 0.30697,0.17466 0.45342,0.27333 0.17128,0.11486 0.35263,0.21407 0.53115,0.31716 0.20323,0.12225 0.38882,0.27736 0.5419,0.45865 0.0759,0.13563 0.0521,0.21287 -0.0782,0.28922 -0.019,0.0106 -0.0384,0.0203 -0.0569,0.0318 -0.0194,0.012 -0.0372,0.0264 -0.0566,0.0383 -0.0195,0.012 -0.0799,0.0449 -0.0602,0.0333 0.69867,-0.41198 0.48441,-0.25775 0.29386,-0.19466 -0.0613,0.0144 -0.16191,0.0285 -0.19631,-0.0439 -0.007,-0.0144 -0.007,-0.0312 -0.0104,-0.0468 -0.005,-0.0588 -0.002,-0.12211 0.0135,-0.17942 0.0149,-0.0539 0.0462,-0.10545 0.0648,-0.15841 0.0325,-0.12773 0.008,-0.20241 -0.047,-0.31683 -0.0516,-0.10652 -0.0698,-0.22358 -0.0888,-0.33921 -0.01,-0.13752 -0.0536,-0.21963 -0.16567,-0.29665 -0.0968,-0.0527 -0.20678,-0.0585 -0.31448,-0.0627 -0.1753,-0.011 -0.31225,0.007 -0.47592,0.0717 -0.25954,0.13277 -0.50682,0.27171 -0.72653,0.45927 -0.13662,0.11663 0.041,-0.0229 -0.12472,0.10403 -0.22648,0.1637 -0.45098,0.32967 -0.66937,0.50409 -0.2816,0.22218 -0.56399,0.44299 -0.85045,0.65883 -0.1201,0.0802 -0.23185,0.17162 -0.35334,0.24978 -0.0301,0.0194 -0.12274,0.0739 -0.0919,0.0557 0.40682,-0.24077 0.5092,-0.27424 0.29086,-0.19111 -0.17892,0.0557 -0.36137,0.0544 -0.544,0.0226 -0.19616,-0.0409 -0.38886,-0.10024 -0.5697,-0.18667 -0.18144,-0.0998 -0.35995,-0.21439 -0.50553,-0.36351 -0.0329,-0.0337 -0.0622,-0.0708 -0.0932,-0.10622 -0.18361,-0.25431 -0.3327,-0.53077 -0.50095,-0.795 -0.15844,-0.24069 -0.32827,-0.47442 -0.48117,-0.71865 -0.0143,-0.028 -0.0302,-0.0552 -0.0429,-0.084 -0.009,-0.0195 -0.0386,-0.0798 -0.0184,-0.10885 0.008,-0.0116 0.0501,-0.0265 0.0381,-0.019 -0.42089,0.26377 -0.57504,0.29433 -0.35038,0.23954 0.15021,-0.0152 0.28082,0.0521 0.39021,0.14917 0.10176,0.12213 0.13864,0.27042 0.1593,0.42415 0.0172,0.17496 0.0143,0.35099 0.0155,0.52655 -0.007,0.11218 0.006,0.22615 -0.003,0.33819 -10e-4,0.0124 -0.0218,0.12776 -0.0235,0.1375 -0.0168,0.13602 -0.0875,0.25337 -0.16726,0.36171 -0.0725,0.10777 -0.15882,0.2005 -0.20916,0.32168 -0.065,0.11219 -0.0694,0.2421 -0.0959,0.36617 -0.0319,0.2078 -0.0938,0.40811 -0.1433,0.61181 -0.0454,0.14787 -0.08,0.29777 -0.0946,0.45177 0.009,0.13264 0.0402,0.26228 0.0822,0.38803 0.051,0.13241 0.0695,0.27249 0.0928,0.41135 0.0247,0.16176 0.0401,0.32515 0.0719,0.48568 0.0359,0.16095 0.059,0.32414 0.0714,0.48847 -0.003,0.0639 0.002,0.0348 -0.0139,0.0878 0,0 0.49253,-0.23898 0.49253,-0.23898 v 0 c 0.007,-0.0631 0.005,-0.0298 0.003,-0.0998 -0.0171,-0.16501 -0.044,-0.32855 -0.078,-0.49094 -0.029,-0.16092 -0.043,-0.32423 -0.068,-0.48585 -0.0209,-0.142 -0.0477,-0.28282 -0.0968,-0.41827 -0.0352,-0.12027 -0.0692,-0.24301 -0.0706,-0.36919 0.017,-0.15007 0.0512,-0.2966 0.0917,-0.442 0.0513,-0.20397 0.10658,-0.40654 0.14423,-0.61372 0.0279,-0.12215 0.044,-0.24728 0.10637,-0.35828 0.0578,-0.11288 0.14396,-0.20517 0.21099,-0.31241 0.0761,-0.11881 0.14465,-0.23905 0.15714,-0.3828 0.0266,-0.15986 0.0194,-0.32025 0.0187,-0.48193 0.001,-0.17809 0.003,-0.35702 -0.0168,-0.53426 -0.0236,-0.1662 -0.0693,-0.32399 -0.17673,-0.45713 -0.11431,-0.10854 -0.2546,-0.18804 -0.41607,-0.18979 -0.26048,0.0145 -0.11997,-0.004 -0.58673,0.29997 -0.0161,0.0105 -0.0188,0.0345 -0.0211,0.0536 -0.009,0.0772 0.0563,0.14944 0.0858,0.21289 0.15654,0.24204 0.3317,0.47204 0.488,0.71443 0.1674,0.26773 0.32126,0.54405 0.50208,0.80321 0.0315,0.0377 0.0606,0.0775 0.0945,0.11315 0.14608,0.15396 0.32924,0.27006 0.50954,0.37871 0.18243,0.0933 0.37793,0.15426 0.57804,0.19806 0.18654,0.0416 0.37166,0.0495 0.55864,0.002 0.39445,-0.12062 0.73226,-0.40406 1.06688,-0.63913 0.28659,-0.21664 0.56781,-0.44004 0.85143,-0.66056 0.22279,-0.17521 0.45221,-0.34115 0.68091,-0.50847 0.0621,-0.0499 0.12234,-0.10189 0.18514,-0.15088 0.14653,-0.11432 0.45379,-0.30024 -0.25576,0.12166 0.15729,-0.0758 0.28222,-0.099 0.45633,-0.087 0.0998,0.002 0.20226,0.003 0.29642,0.0399 0.11266,0.0646 0.13274,0.12584 0.14642,0.25457 0.0192,0.12135 0.0376,0.24299 0.0933,0.35419 0.045,0.0961 0.0644,0.17356 0.0278,0.27776 -0.0471,0.11892 -0.0883,0.23768 -0.0632,0.36796 0.007,0.0222 0.01,0.0459 0.0201,0.0668 0.0438,0.0895 0.14488,0.10841 0.23405,0.0966 0.30173,-0.0793 0.55393,-0.27851 0.81596,-0.44205 0.0159,-0.0148 0.0338,-0.0275 0.0475,-0.0443 0.0801,-0.0983 0.0504,-0.22545 -0.0138,-0.32174 -0.16071,-0.18175 -0.35034,-0.34124 -0.55558,-0.47022 -0.17371,-0.10771 -0.35484,-0.2036 -0.52413,-0.31803 -0.14746,-0.10085 -0.29568,-0.20296 -0.45742,-0.27973 -0.15504,-0.075 -0.3108,-0.15278 -0.4794,-0.19264 -0.1,-0.021 -0.20104,-0.0465 -0.30401,-0.038 -0.20943,0.0122 -0.41651,0.0459 -0.62408,0.075 -0.4915,0.0678 -0.98639,0.10251 -1.47915,0.16014 -0.1386,0.016 -0.2693,0.0269 -0.4053,0.0567 -0.31305,0.0687 -0.60789,0.20344 -0.90492,0.31917 -0.45392,0.20474 -0.89674,0.43174 -1.34604,0.64613 0,0 -0.42589,0.33659 -0.42589,0.33659 z" />
      <path
         style="fill:#321a05;fill-opacity:1;stroke-width:0.1"
         id="path889-5-5"
         d="m 105.66516,125.86373 c 0.26186,0.0321 0.51461,0.11134 0.77401,0.15896 0.23024,0.0299 0.45941,0.0676 0.68964,0.0975 0.22985,0.0575 0.4537,0.12139 0.68982,0.149 0.28495,0.0373 0.57088,0.0146 0.8558,-0.007 0.22461,-0.0194 0.44991,-0.0273 0.67525,-0.0311 0.2104,-0.003 0.42082,-0.002 0.63123,-0.003 0.58593,0.0274 0.98498,-0.2031 1.44342,-0.70943 0.4086,-0.11252 -0.0276,0.003 -0.87517,0.5035 -0.008,0.005 0.008,0.017 0.0105,0.0261 0.007,0.0279 0.0118,0.0561 0.0156,0.0845 0.0138,0.10187 0.015,0.1629 0.0207,0.26685 0.0101,0.27257 0.006,0.54539 0.005,0.81808 0.008,0.29954 -0.012,0.59995 0.009,0.8989 0.0353,0.26192 0.0244,0.52927 0.0765,0.7883 0,0 0.95937,-0.51047 0.95937,-0.51047 v 0 c -0.04,-0.25679 -0.0438,-0.51838 -0.072,-0.77671 -0.0169,-0.29733 -0.006,-0.59534 -0.005,-0.89298 10e-4,-0.27428 8e-4,-0.54864 -0.01,-0.82275 -0.0384,-0.67599 -0.17308,-0.94982 -1.14353,0.0392 -0.28918,0.30725 -0.0657,0.0564 0.80233,-0.41183 0.0219,-0.0118 -0.0372,0.0346 -0.0603,0.0438 -0.0921,0.0366 -0.20015,0.002 -0.29491,0.0142 -0.21071,-5.3e-4 -0.42143,-0.001 -0.63213,0.001 -0.2275,0.003 -0.4551,0.008 -0.68193,0.0269 -0.28141,0.025 -0.56367,0.0594 -0.84603,0.0257 -0.23502,-0.0232 -0.46113,-0.0729 -0.68438,-0.15129 -0.23104,-0.0253 -0.4591,-0.0697 -0.6907,-0.0901 -0.25906,-0.041 -0.50975,-0.11321 -0.7648,-0.1691 0,0 -0.89783,0.63304 -0.89783,0.63304 z" />
      <path
         d="m 104.45066,139.12684 c 0.46083,-0.2242 0.91544,-0.46022 1.38176,-0.67303 0.28793,-0.11661 0.57695,-0.2405 0.88079,-0.31086 0.13929,-0.0323 0.26514,-0.0468 0.40788,-0.0674 0.48983,-0.0661 0.98311,-0.0984 1.4738,-0.15628 0.20086,-0.0247 0.40159,-0.0511 0.60361,-0.0642 0.0991,-0.009 0.19723,0.008 0.29403,0.0276 0.16845,0.0311 0.32456,0.10188 0.47675,0.17776 0.16093,0.0742 0.30697,0.17466 0.45342,0.27333 0.17128,0.11486 0.35263,0.21407 0.53115,0.31716 0.20323,0.12225 0.38882,0.27736 0.5419,0.45865 0.0759,0.13563 0.0521,0.21287 -0.0782,0.28922 -0.019,0.0106 -0.0384,0.0203 -0.0569,0.0318 -0.0194,0.012 -0.0372,0.0264 -0.0566,0.0383 -0.0195,0.012 -0.0799,0.0449 -0.0602,0.0333 0.69867,-0.41198 0.48441,-0.25775 0.29386,-0.19466 -0.0613,0.0144 -0.16191,0.0285 -0.19631,-0.0439 -0.007,-0.0144 -0.007,-0.0312 -0.0104,-0.0468 -0.005,-0.0588 -0.002,-0.12211 0.0135,-0.17942 0.0149,-0.0539 0.0462,-0.10545 0.0648,-0.15841 0.0325,-0.12773 0.008,-0.20241 -0.047,-0.31683 -0.0516,-0.10652 -0.0698,-0.22358 -0.0888,-0.33921 -0.01,-0.13752 -0.0536,-0.21963 -0.16567,-0.29665 -0.0968,-0.0527 -0.20678,-0.0585 -0.31448,-0.0627 -0.1753,-0.011 -0.31225,0.007 -0.47592,0.0717 -0.25954,0.13277 -0.50682,0.27171 -0.72653,0.45927 -0.13662,0.11663 0.041,-0.0229 -0.12472,0.10403 -0.22648,0.1637 -0.45098,0.32967 -0.66937,0.50409 -0.2816,0.22218 -0.56399,0.44299 -0.85045,0.65883 -0.1201,0.0802 -0.23185,0.17162 -0.35334,0.24978 -0.0301,0.0194 -0.12274,0.0739 -0.0919,0.0557 0.40682,-0.24077 0.5092,-0.27424 0.29086,-0.19111 -0.17892,0.0557 -0.36137,0.0544 -0.544,0.0226 -0.19616,-0.0409 -0.38886,-0.10024 -0.5697,-0.18667 -0.18144,-0.0998 -0.35995,-0.21439 -0.50553,-0.36351 -0.0329,-0.0337 -0.0622,-0.0708 -0.0932,-0.10622 -0.18361,-0.25431 -0.3327,-0.53077 -0.50095,-0.795 -0.15844,-0.24069 -0.32827,-0.47442 -0.48117,-0.71865 -0.0143,-0.028 -0.0302,-0.0552 -0.0429,-0.084 -0.009,-0.0195 -0.0386,-0.0798 -0.0184,-0.10885 0.008,-0.0116 0.0501,-0.0265 0.0381,-0.019 -0.42089,0.26377 -0.57504,0.29433 -0.35038,0.23954 0.15021,-0.0152 0.28082,0.0521 0.39021,0.14917 0.10176,0.12213 0.13864,0.27042 0.1593,0.42415 0.0172,0.17496 0.0143,0.35099 0.0155,0.52655 -0.007,0.11218 0.006,0.22615 -0.003,0.33819 -0.001,0.0124 -0.0218,0.12776 -0.0235,0.1375 -0.0168,0.13602 -0.0875,0.25337 -0.16726,0.36171 -0.0725,0.10777 -0.15882,0.2005 -0.20916,0.32168 -0.065,0.11219 -0.0694,0.2421 -0.0959,0.36617 -0.0319,0.2078 -0.0938,0.40811 -0.1433,0.61181 -0.0454,0.14787 -0.08,0.29777 -0.0946,0.45177 0.009,0.13264 0.0402,0.26228 0.0822,0.38803 0.051,0.13241 0.0695,0.27249 0.0928,0.41135 0.0247,0.16176 0.0401,0.32515 0.0719,0.48568 0.0359,0.16095 0.059,0.32414 0.0714,0.48847 -0.003,0.0639 0.002,0.0348 -0.0139,0.0878 0,0 0.49253,-0.23898 0.49253,-0.23898 v 0 c 0.007,-0.0631 0.005,-0.0298 0.003,-0.0998 -0.0171,-0.16501 -0.044,-0.32855 -0.078,-0.49094 -0.029,-0.16092 -0.043,-0.32423 -0.068,-0.48585 -0.0209,-0.142 -0.0477,-0.28282 -0.0968,-0.41827 -0.0352,-0.12027 -0.0692,-0.24301 -0.0706,-0.36919 0.017,-0.15007 0.0512,-0.2966 0.0917,-0.442 0.0513,-0.20397 0.10658,-0.40654 0.14423,-0.61372 0.0279,-0.12215 0.044,-0.24728 0.10637,-0.35828 0.0578,-0.11288 0.14396,-0.20517 0.21099,-0.31241 0.0761,-0.11881 0.14465,-0.23905 0.15714,-0.3828 0.0266,-0.15986 0.0194,-0.32025 0.0187,-0.48193 0.001,-0.17809 0.003,-0.35702 -0.0168,-0.53426 -0.0236,-0.1662 -0.0693,-0.32399 -0.17673,-0.45713 -0.11431,-0.10854 -0.2546,-0.18804 -0.41607,-0.18979 -0.26048,0.0145 -0.11997,-0.004 -0.58673,0.29997 -0.0161,0.0105 -0.0188,0.0345 -0.0211,0.0536 -0.009,0.0772 0.0563,0.14944 0.0858,0.21289 0.15654,0.24204 0.3317,0.47204 0.488,0.71443 0.1674,0.26773 0.32126,0.54405 0.50208,0.80321 0.0315,0.0377 0.0606,0.0775 0.0945,0.11315 0.14608,0.15396 0.32924,0.27006 0.50954,0.37871 0.18243,0.0933 0.37793,0.15426 0.57804,0.19806 0.18654,0.0416 0.37166,0.0495 0.55864,0.002 0.39445,-0.12062 0.73226,-0.40406 1.06688,-0.63913 0.28659,-0.21664 0.56781,-0.44004 0.85143,-0.66056 0.22279,-0.17521 0.45221,-0.34115 0.68091,-0.50847 0.0621,-0.0499 0.12234,-0.10189 0.18514,-0.15088 0.14653,-0.11432 0.45379,-0.30024 -0.25576,0.12166 0.15729,-0.0758 0.28222,-0.099 0.45633,-0.087 0.0998,0.002 0.20226,0.003 0.29642,0.0399 0.11266,0.0646 0.13274,0.12584 0.14642,0.25457 0.0192,0.12135 0.0376,0.24299 0.0933,0.35419 0.045,0.0961 0.0644,0.17356 0.0278,0.27776 -0.0471,0.11892 -0.0883,0.23768 -0.0632,0.36796 0.007,0.0222 0.01,0.0459 0.0201,0.0668 0.0438,0.0895 0.14488,0.10841 0.23405,0.0966 0.30173,-0.0793 0.55393,-0.27851 0.81596,-0.44205 0.0159,-0.0148 0.0338,-0.0275 0.0475,-0.0443 0.0801,-0.0983 0.0504,-0.22545 -0.0138,-0.32174 -0.16071,-0.18176 -0.35034,-0.34125 -0.55558,-0.47023 -0.17371,-0.10771 -0.35484,-0.2036 -0.52413,-0.31803 -0.14746,-0.10085 -0.29568,-0.20296 -0.45742,-0.27973 -0.15504,-0.075 -0.3108,-0.15278 -0.4794,-0.19264 -0.1,-0.021 -0.20104,-0.0465 -0.30401,-0.038 -0.20943,0.0122 -0.41651,0.0459 -0.62408,0.075 -0.4915,0.0678 -0.98639,0.10251 -1.47915,0.16014 -0.1386,0.016 -0.2693,0.0269 -0.4053,0.0567 -0.31305,0.0687 -0.60789,0.20344 -0.90492,0.31917 -0.45392,0.20474 -0.89674,0.43174 -1.34604,0.64613 0,0 -0.42589,0.33659 -0.42589,0.33659 z"
         id="path887-8-7-9"
         style="fill:#321a05;fill-opacity:1;stroke-width:0.1" />
      <path
         d="m 105.39839,138.3857 c 0.26186,0.0321 0.51461,0.11134 0.77401,0.15896 0.23024,0.0299 0.45941,0.0676 0.68964,0.0975 0.22985,0.0575 0.4537,0.12139 0.68982,0.149 0.28495,0.0373 0.57088,0.0146 0.8558,-0.007 0.22461,-0.0194 0.44991,-0.0273 0.67525,-0.0311 0.2104,-0.003 0.42082,-0.002 0.63123,-0.003 0.58593,0.0274 0.98498,-0.2031 1.44342,-0.70943 0.4086,-0.11252 -0.0276,0.003 -0.87517,0.5035 -0.008,0.005 0.008,0.017 0.0105,0.0261 0.007,0.0279 0.0118,0.0561 0.0156,0.0845 0.0138,0.10187 0.015,0.1629 0.0207,0.26685 0.0101,0.27257 0.006,0.54539 0.005,0.81808 0.008,0.29954 -0.012,0.59995 0.009,0.8989 0.0353,0.26192 0.0244,0.52927 0.0765,0.7883 0,0 0.95937,-0.51047 0.95937,-0.51047 v 0 c -0.04,-0.25679 -0.0438,-0.51838 -0.072,-0.77671 -0.0169,-0.29733 -0.006,-0.59534 -0.005,-0.89298 0.001,-0.27428 8e-4,-0.54864 -0.01,-0.82275 -0.0384,-0.67599 -0.17308,-0.94982 -1.14353,0.0392 -0.28918,0.30725 -0.0657,0.0564 0.80233,-0.41183 0.0219,-0.0118 -0.0372,0.0346 -0.0603,0.0438 -0.0921,0.0366 -0.20015,0.002 -0.29491,0.0142 -0.21071,-5.3e-4 -0.42143,-0.001 -0.63213,0.001 -0.2275,0.003 -0.4551,0.008 -0.68193,0.0269 -0.28141,0.025 -0.56367,0.0594 -0.84603,0.0257 -0.23502,-0.0232 -0.46113,-0.0729 -0.68438,-0.15129 -0.23104,-0.0253 -0.4591,-0.0697 -0.6907,-0.0901 -0.25906,-0.041 -0.50975,-0.11321 -0.7648,-0.1691 0,0 -0.89783,0.63304 -0.89783,0.63304 z"
         id="path889-5-5-0"
         style="fill:#321a05;fill-opacity:1;stroke-width:0.1" />
      <path
         style="fill:#321a05;fill-opacity:1;stroke-width:0.1"
         id="path887-8-7-9-0"
         d="m 104.59863,150.88986 c 0.46083,-0.2242 0.91544,-0.46022 1.38176,-0.67303 0.28793,-0.11661 0.57695,-0.2405 0.88079,-0.31086 0.13929,-0.0323 0.26514,-0.0468 0.40788,-0.0674 0.48983,-0.0661 0.98311,-0.0984 1.4738,-0.15628 0.20086,-0.0247 0.40158,-0.0511 0.60361,-0.0642 0.0991,-0.009 0.19723,0.008 0.29403,0.0276 0.16845,0.0311 0.32456,0.10188 0.47675,0.17776 0.16093,0.0742 0.30697,0.17466 0.45342,0.27333 0.17128,0.11486 0.35263,0.21407 0.53115,0.31716 0.20323,0.12225 0.38882,0.27736 0.5419,0.45865 0.0759,0.13563 0.0521,0.21287 -0.0782,0.28922 -0.019,0.0106 -0.0384,0.0203 -0.0569,0.0318 -0.0194,0.012 -0.0372,0.0264 -0.0566,0.0383 -0.0195,0.012 -0.0799,0.0449 -0.0602,0.0333 0.69867,-0.41198 0.48441,-0.25775 0.29386,-0.19466 -0.0613,0.0144 -0.16191,0.0285 -0.19631,-0.0439 -0.007,-0.0144 -0.007,-0.0312 -0.0104,-0.0468 -0.005,-0.0588 -0.002,-0.12211 0.0135,-0.17942 0.0149,-0.0539 0.0462,-0.10545 0.0648,-0.15841 0.0325,-0.12773 0.008,-0.20241 -0.047,-0.31683 -0.0516,-0.10652 -0.0698,-0.22358 -0.0888,-0.33921 -0.01,-0.13752 -0.0536,-0.21963 -0.16567,-0.29665 -0.0968,-0.0527 -0.20678,-0.0585 -0.31448,-0.0627 -0.1753,-0.011 -0.31225,0.007 -0.47593,0.0717 -0.25953,0.13277 -0.50681,0.27171 -0.72652,0.45927 -0.13662,0.11663 0.041,-0.0229 -0.12472,0.10403 -0.22648,0.1637 -0.45098,0.32967 -0.66937,0.50409 -0.2816,0.22218 -0.564,0.44299 -0.85045,0.65883 -0.1201,0.0802 -0.23186,0.17162 -0.35334,0.24978 -0.0301,0.0194 -0.12275,0.0739 -0.0919,0.0557 0.40682,-0.24077 0.5092,-0.27424 0.29086,-0.19111 -0.17892,0.0557 -0.36137,0.0544 -0.544,0.0226 -0.19616,-0.0409 -0.38886,-0.10024 -0.5697,-0.18667 -0.18144,-0.0998 -0.35995,-0.21439 -0.50553,-0.36351 -0.0329,-0.0337 -0.0622,-0.0708 -0.0932,-0.10622 -0.18361,-0.25431 -0.3327,-0.53077 -0.50095,-0.795 -0.15844,-0.24069 -0.32827,-0.47442 -0.48117,-0.71865 -0.0143,-0.028 -0.0302,-0.0552 -0.0429,-0.084 -0.009,-0.0195 -0.0386,-0.0798 -0.0184,-0.10885 0.008,-0.0116 0.0501,-0.0265 0.0381,-0.019 -0.42089,0.26377 -0.57504,0.29433 -0.35038,0.23954 0.15021,-0.0152 0.28082,0.0521 0.39021,0.14917 0.10176,0.12213 0.13864,0.27042 0.1593,0.42415 0.0172,0.17496 0.0143,0.35099 0.0155,0.52655 -0.007,0.11218 0.006,0.22615 -0.003,0.33819 -0.001,0.0124 -0.0218,0.12776 -0.0235,0.1375 -0.0168,0.13602 -0.0875,0.25337 -0.16726,0.36171 -0.0725,0.10777 -0.15882,0.2005 -0.20916,0.32168 -0.065,0.11219 -0.0694,0.2421 -0.0959,0.36617 -0.0319,0.2078 -0.0938,0.40811 -0.1433,0.61181 -0.0454,0.14787 -0.08,0.29777 -0.0946,0.45177 0.009,0.13264 0.0402,0.26228 0.0822,0.38803 0.051,0.13241 0.0695,0.27249 0.0928,0.41135 0.0247,0.16176 0.0401,0.32515 0.0719,0.48568 0.0359,0.16095 0.059,0.32414 0.0714,0.48847 -0.003,0.0639 0.002,0.0348 -0.0139,0.0878 0,0 0.49253,-0.23898 0.49253,-0.23898 v 0 c 0.007,-0.0631 0.005,-0.0298 0.003,-0.0998 -0.0171,-0.16501 -0.044,-0.32855 -0.078,-0.49094 -0.029,-0.16092 -0.043,-0.32423 -0.068,-0.48585 -0.0209,-0.142 -0.0477,-0.28282 -0.0968,-0.41827 -0.0352,-0.12027 -0.0692,-0.24301 -0.0706,-0.36919 0.017,-0.15007 0.0512,-0.2966 0.0917,-0.442 0.0513,-0.20397 0.10659,-0.40654 0.14424,-0.61372 0.0279,-0.12215 0.044,-0.24728 0.10637,-0.35828 0.0578,-0.11288 0.14396,-0.20517 0.21099,-0.31241 0.0761,-0.11881 0.14465,-0.23905 0.15714,-0.3828 0.0266,-0.15986 0.0194,-0.32025 0.0187,-0.48193 0.001,-0.17809 0.003,-0.35702 -0.0168,-0.53426 -0.0236,-0.1662 -0.0693,-0.32399 -0.17673,-0.45713 -0.11431,-0.10854 -0.2546,-0.18804 -0.41607,-0.18979 -0.26048,0.0145 -0.11997,-0.004 -0.58673,0.29997 -0.0161,0.0105 -0.0188,0.0345 -0.0211,0.0536 -0.009,0.0772 0.0563,0.14944 0.0858,0.21289 0.15654,0.24204 0.3317,0.47204 0.488,0.71443 0.1674,0.26773 0.32126,0.54405 0.50208,0.80321 0.0315,0.0377 0.0606,0.0775 0.0945,0.11315 0.14608,0.15396 0.32924,0.27006 0.50954,0.37871 0.18243,0.0933 0.37793,0.15426 0.57804,0.19806 0.18654,0.0416 0.37165,0.0495 0.55863,0.002 0.39446,-0.12062 0.73226,-0.40406 1.06689,-0.63913 0.28659,-0.21664 0.5678,-0.44004 0.85143,-0.66056 0.22279,-0.17521 0.45221,-0.34115 0.68091,-0.50847 0.0621,-0.0499 0.12234,-0.10189 0.18514,-0.15088 0.14653,-0.11432 0.45379,-0.30024 -0.25576,0.12166 0.15729,-0.0758 0.28222,-0.099 0.45633,-0.087 0.0998,0.002 0.20226,0.003 0.29642,0.0399 0.11266,0.0646 0.13274,0.12584 0.14642,0.25457 0.0192,0.12135 0.0376,0.24299 0.0933,0.35419 0.045,0.0961 0.0644,0.17356 0.0278,0.27776 -0.0471,0.11892 -0.0883,0.23768 -0.0632,0.36796 0.007,0.0222 0.01,0.0459 0.0201,0.0668 0.0438,0.0895 0.14488,0.10841 0.23405,0.0966 0.30173,-0.0793 0.55393,-0.27851 0.81596,-0.44205 0.0159,-0.0148 0.0338,-0.0275 0.0475,-0.0443 0.0801,-0.0983 0.0504,-0.22545 -0.0138,-0.32174 -0.1607,-0.18177 -0.35033,-0.34126 -0.55557,-0.47024 -0.17371,-0.10771 -0.35484,-0.2036 -0.52413,-0.31803 -0.14746,-0.10085 -0.29568,-0.20296 -0.45742,-0.27973 -0.15504,-0.075 -0.3108,-0.15278 -0.4794,-0.19264 -0.1,-0.021 -0.20104,-0.0465 -0.30401,-0.038 -0.20943,0.0122 -0.41651,0.0459 -0.62408,0.075 -0.49151,0.0678 -0.98639,0.10251 -1.47915,0.16014 -0.13861,0.016 -0.2693,0.0269 -0.40531,0.0567 -0.31304,0.0687 -0.60788,0.20344 -0.90491,0.31917 -0.45392,0.20474 -0.89674,0.43174 -1.34604,0.64613 0,0 -0.42589,0.33659 -0.42589,0.33659 z" />
      <path
         style="fill:#321a05;fill-opacity:1;stroke-width:0.1"
         id="path889-5-5-0-1"
         d="m 105.54636,150.14872 c 0.26186,0.0321 0.51461,0.11134 0.77401,0.15896 0.23024,0.0299 0.45941,0.0676 0.68964,0.0975 0.22985,0.0575 0.4537,0.12139 0.68981,0.149 0.28496,0.0373 0.57089,0.0146 0.85581,-0.007 0.22461,-0.0194 0.44991,-0.0273 0.67525,-0.0311 0.2104,-0.003 0.42082,-0.002 0.63123,-0.003 0.58593,0.0274 0.98498,-0.2031 1.44342,-0.70943 0.4086,-0.11252 -0.0276,0.003 -0.87517,0.5035 -0.008,0.005 0.008,0.017 0.0105,0.0261 0.007,0.0279 0.0118,0.0561 0.0156,0.0845 0.0138,0.10187 0.015,0.1629 0.0207,0.26685 0.0101,0.27257 0.006,0.54539 0.005,0.81808 0.008,0.29954 -0.012,0.59995 0.009,0.8989 0.0353,0.26192 0.0244,0.52927 0.0765,0.7883 0,0 0.95937,-0.51047 0.95937,-0.51047 v 0 c -0.04,-0.25679 -0.0438,-0.51838 -0.072,-0.77671 -0.0169,-0.29733 -0.006,-0.59534 -0.005,-0.89298 0.001,-0.27428 7.9e-4,-0.54864 -0.01,-0.82275 -0.0384,-0.67599 -0.17308,-0.94982 -1.14353,0.0392 -0.28918,0.30725 -0.0657,0.0564 0.80233,-0.41183 0.0219,-0.0118 -0.0372,0.0346 -0.0603,0.0438 -0.0921,0.0366 -0.20015,0.002 -0.29491,0.0142 -0.21071,-5.3e-4 -0.42143,-0.001 -0.63213,0.001 -0.2275,0.003 -0.4551,0.008 -0.68193,0.0269 -0.28141,0.025 -0.56367,0.0594 -0.84603,0.0257 -0.23502,-0.0232 -0.46113,-0.0729 -0.68438,-0.15129 -0.23104,-0.0253 -0.4591,-0.0697 -0.6907,-0.0901 -0.25906,-0.041 -0.50975,-0.11321 -0.7648,-0.1691 0,0 -0.89783,0.63304 -0.89783,0.63304 z" />
      <path
         d="m 104.37667,164.1325 c 0.46083,-0.2242 0.91544,-0.46022 1.38176,-0.67303 0.28793,-0.11661 0.57695,-0.2405 0.88079,-0.31086 0.13929,-0.0323 0.26514,-0.0468 0.40788,-0.0674 0.48983,-0.0661 0.98311,-0.0984 1.4738,-0.15628 0.20086,-0.0247 0.40158,-0.0511 0.60361,-0.0642 0.0991,-0.009 0.19723,0.008 0.29403,0.0276 0.16845,0.0311 0.32456,0.10188 0.47675,0.17776 0.16093,0.0742 0.30697,0.17466 0.45342,0.27333 0.17128,0.11486 0.35263,0.21407 0.53115,0.31716 0.20323,0.12225 0.38882,0.27736 0.5419,0.45865 0.0759,0.13563 0.0521,0.21287 -0.0782,0.28922 -0.019,0.0106 -0.0384,0.0203 -0.0569,0.0318 -0.0194,0.012 -0.0372,0.0264 -0.0566,0.0383 -0.0195,0.012 -0.0799,0.0449 -0.0602,0.0333 0.69867,-0.41198 0.48441,-0.25775 0.29386,-0.19466 -0.0613,0.0144 -0.16191,0.0285 -0.19631,-0.0439 -0.007,-0.0144 -0.007,-0.0312 -0.0104,-0.0468 -0.005,-0.0588 -0.002,-0.12211 0.0135,-0.17942 0.0149,-0.0539 0.0462,-0.10545 0.0648,-0.15841 0.0325,-0.12773 0.008,-0.20241 -0.047,-0.31683 -0.0516,-0.10652 -0.0698,-0.22358 -0.0888,-0.33921 -0.01,-0.13752 -0.0536,-0.21963 -0.16567,-0.29665 -0.0968,-0.0527 -0.20678,-0.0585 -0.31448,-0.0627 -0.1753,-0.011 -0.31225,0.007 -0.47593,0.0717 -0.25953,0.13277 -0.50681,0.27171 -0.72652,0.45927 -0.13662,0.11663 0.041,-0.0229 -0.12472,0.10403 -0.22648,0.1637 -0.45098,0.32967 -0.66937,0.50409 -0.2816,0.22218 -0.564,0.44299 -0.85045,0.65883 -0.1201,0.0802 -0.23186,0.17162 -0.35334,0.24978 -0.0301,0.0194 -0.12275,0.0739 -0.0919,0.0557 0.40682,-0.24077 0.5092,-0.27424 0.29086,-0.19111 -0.17892,0.0557 -0.36137,0.0544 -0.544,0.0226 -0.19616,-0.0409 -0.38886,-0.10024 -0.5697,-0.18667 -0.18144,-0.0998 -0.35995,-0.21439 -0.50553,-0.36351 -0.0329,-0.0337 -0.0622,-0.0708 -0.0932,-0.10622 -0.18361,-0.25431 -0.3327,-0.53077 -0.50095,-0.795 -0.15844,-0.24069 -0.32827,-0.47442 -0.48117,-0.71865 -0.0143,-0.028 -0.0302,-0.0552 -0.0429,-0.084 -0.009,-0.0195 -0.0386,-0.0798 -0.0184,-0.10885 0.008,-0.0116 0.0501,-0.0265 0.0381,-0.019 -0.42089,0.26377 -0.57504,0.29433 -0.35038,0.23954 0.15021,-0.0152 0.28082,0.0521 0.39021,0.14917 0.10176,0.12213 0.13864,0.27042 0.1593,0.42415 0.0172,0.17496 0.0143,0.35099 0.0155,0.52655 -0.007,0.11218 0.006,0.22615 -0.003,0.33819 -0.001,0.0124 -0.0218,0.12776 -0.0235,0.1375 -0.0168,0.13602 -0.0875,0.25337 -0.16726,0.36171 -0.0725,0.10777 -0.15882,0.2005 -0.20916,0.32168 -0.065,0.11219 -0.0694,0.2421 -0.0959,0.36617 -0.0319,0.2078 -0.0938,0.40811 -0.1433,0.61181 -0.0454,0.14787 -0.08,0.29777 -0.0946,0.45177 0.009,0.13264 0.0402,0.26228 0.0822,0.38803 0.051,0.13241 0.0695,0.27249 0.0928,0.41135 0.0247,0.16176 0.0401,0.32515 0.0719,0.48568 0.0359,0.16095 0.059,0.32414 0.0714,0.48847 -0.003,0.0639 0.002,0.0348 -0.0139,0.0878 0,0 0.49253,-0.23898 0.49253,-0.23898 v 0 c 0.007,-0.0631 0.005,-0.0298 0.003,-0.0998 -0.0171,-0.16501 -0.044,-0.32855 -0.078,-0.49094 -0.029,-0.16092 -0.043,-0.32423 -0.068,-0.48585 -0.0209,-0.142 -0.0477,-0.28282 -0.0968,-0.41827 -0.0352,-0.12027 -0.0692,-0.24301 -0.0706,-0.36919 0.017,-0.15007 0.0512,-0.2966 0.0917,-0.442 0.0513,-0.20397 0.10659,-0.40654 0.14424,-0.61372 0.0279,-0.12215 0.044,-0.24728 0.10637,-0.35828 0.0578,-0.11288 0.14396,-0.20517 0.21099,-0.31241 0.0761,-0.11881 0.14465,-0.23905 0.15714,-0.3828 0.0266,-0.15986 0.0194,-0.32025 0.0187,-0.48193 0.001,-0.17809 0.003,-0.35702 -0.0168,-0.53426 -0.0236,-0.1662 -0.0693,-0.32399 -0.17673,-0.45713 -0.11431,-0.10854 -0.2546,-0.18804 -0.41607,-0.18979 -0.26048,0.0145 -0.11997,-0.004 -0.58673,0.29997 -0.0161,0.0105 -0.0188,0.0345 -0.0211,0.0536 -0.009,0.0772 0.0563,0.14944 0.0858,0.21289 0.15654,0.24204 0.3317,0.47204 0.488,0.71443 0.1674,0.26773 0.32126,0.54405 0.50208,0.80321 0.0315,0.0377 0.0606,0.0775 0.0945,0.11315 0.14608,0.15396 0.32924,0.27006 0.50954,0.37871 0.18243,0.0933 0.37793,0.15426 0.57804,0.19806 0.18654,0.0416 0.37165,0.0495 0.55863,0.002 0.39446,-0.12062 0.73226,-0.40406 1.06689,-0.63913 0.28659,-0.21664 0.5678,-0.44004 0.85143,-0.66056 0.22279,-0.17521 0.45221,-0.34115 0.68091,-0.50847 0.0621,-0.0499 0.12234,-0.10189 0.18514,-0.15088 0.14653,-0.11432 0.45379,-0.30024 -0.25576,0.12166 0.15729,-0.0758 0.28222,-0.099 0.45633,-0.087 0.0998,0.002 0.20226,0.003 0.29642,0.0399 0.11266,0.0646 0.13274,0.12584 0.14642,0.25457 0.0192,0.12135 0.0376,0.24299 0.0933,0.35419 0.045,0.0961 0.0644,0.17356 0.0278,0.27776 -0.0471,0.11892 -0.0883,0.23768 -0.0632,0.36796 0.007,0.0222 0.01,0.0459 0.0201,0.0668 0.0438,0.0895 0.14488,0.10841 0.23405,0.0966 0.30173,-0.0793 0.55393,-0.27851 0.81596,-0.44205 0.0159,-0.0148 0.0338,-0.0275 0.0475,-0.0443 0.0801,-0.0983 0.0504,-0.22546 -0.0138,-0.32175 -0.1607,-0.18177 -0.35033,-0.34126 -0.55557,-0.47024 -0.17371,-0.10771 -0.35484,-0.2036 -0.52413,-0.31803 -0.14746,-0.10085 -0.29568,-0.20296 -0.45742,-0.27973 -0.15504,-0.075 -0.3108,-0.15278 -0.4794,-0.19264 -0.1,-0.021 -0.20104,-0.0465 -0.30401,-0.038 -0.20943,0.0122 -0.41651,0.0459 -0.62408,0.075 -0.49151,0.0678 -0.98639,0.10251 -1.47915,0.16014 -0.13861,0.016 -0.2693,0.0269 -0.40531,0.0567 -0.31304,0.0687 -0.60788,0.20344 -0.90491,0.31917 -0.45392,0.20474 -0.89674,0.43174 -1.34604,0.64613 0,0 -0.42589,0.33659 -0.42589,0.33659 z"
         id="path887-8-7-9-0-2"
         style="fill:#321a05;fill-opacity:1;stroke-width:0.1" />
      <path
         d="m 105.3244,163.39136 c 0.26186,0.0321 0.51461,0.11134 0.77401,0.15896 0.23024,0.0299 0.45941,0.0676 0.68964,0.0975 0.22985,0.0575 0.4537,0.12139 0.68981,0.149 0.28496,0.0373 0.57089,0.0146 0.85581,-0.007 0.22461,-0.0194 0.44991,-0.0273 0.67525,-0.0311 0.2104,-0.003 0.42082,-0.002 0.63123,-0.003 0.58593,0.0274 0.98498,-0.2031 1.44342,-0.70943 0.4086,-0.11252 -0.0276,0.003 -0.87517,0.5035 -0.008,0.005 0.008,0.017 0.0105,0.0261 0.007,0.0279 0.0118,0.0561 0.0156,0.0845 0.0138,0.10187 0.015,0.1629 0.0207,0.26685 0.0101,0.27257 0.006,0.54539 0.005,0.81808 0.008,0.29954 -0.012,0.59995 0.009,0.8989 0.0353,0.26192 0.0244,0.52927 0.0765,0.7883 0,0 0.95937,-0.51047 0.95937,-0.51047 v 0 c -0.04,-0.25679 -0.0438,-0.51838 -0.072,-0.77671 -0.0169,-0.29733 -0.006,-0.59534 -0.005,-0.89298 10e-4,-0.27428 8e-4,-0.54864 -0.01,-0.82275 -0.0384,-0.67599 -0.17308,-0.94982 -1.14353,0.0392 -0.28918,0.30725 -0.0657,0.0564 0.80233,-0.41183 0.0219,-0.0118 -0.0372,0.0346 -0.0603,0.0438 -0.0921,0.0366 -0.20015,0.002 -0.29491,0.0142 -0.21071,-5.3e-4 -0.42143,-0.001 -0.63213,0.001 -0.2275,0.003 -0.4551,0.008 -0.68193,0.0269 -0.28141,0.025 -0.56367,0.0594 -0.84603,0.0257 -0.23502,-0.0232 -0.46113,-0.0729 -0.68438,-0.15129 -0.23104,-0.0253 -0.4591,-0.0697 -0.6907,-0.0901 -0.25906,-0.041 -0.50975,-0.11321 -0.7648,-0.1691 0,0 -0.89783,0.63304 -0.89783,0.63304 z"
         id="path889-5-5-0-1-2"
         style="fill:#321a05;fill-opacity:1;stroke-width:0.1" />
      <path
         style="fill:#321a05;fill-opacity:1;stroke-width:0.1"
         id="path887-8-7-9-0-2-5"
         d="m 104.82055,178.11497 c 0.46083,-0.2242 0.91544,-0.46022 1.38176,-0.67303 0.28793,-0.11661 0.57695,-0.2405 0.88079,-0.31086 0.13929,-0.0323 0.26514,-0.0468 0.40788,-0.0674 0.48983,-0.0661 0.98311,-0.0984 1.4738,-0.15628 0.20086,-0.0247 0.40158,-0.0511 0.60361,-0.0642 0.0991,-0.009 0.19723,0.008 0.29403,0.0276 0.16845,0.0311 0.32456,0.10188 0.47675,0.17776 0.16093,0.0742 0.30697,0.17466 0.45342,0.27333 0.17128,0.11486 0.35263,0.21407 0.53115,0.31716 0.20323,0.12225 0.38882,0.27736 0.5419,0.45865 0.0759,0.13563 0.0521,0.21287 -0.0782,0.28922 -0.019,0.0106 -0.0384,0.0203 -0.0569,0.0318 -0.0194,0.012 -0.0372,0.0264 -0.0566,0.0383 -0.0195,0.012 -0.0799,0.0449 -0.0602,0.0333 0.69867,-0.41198 0.48441,-0.25775 0.29386,-0.19466 -0.0613,0.0144 -0.16191,0.0285 -0.19631,-0.0439 -0.007,-0.0144 -0.007,-0.0312 -0.0104,-0.0468 -0.005,-0.0588 -0.002,-0.12211 0.0135,-0.17942 0.0149,-0.0539 0.0462,-0.10545 0.0648,-0.15841 0.0325,-0.12773 0.008,-0.20241 -0.047,-0.31683 -0.0516,-0.10652 -0.0698,-0.22358 -0.0888,-0.33921 -0.01,-0.13752 -0.0536,-0.21963 -0.16567,-0.29665 -0.0968,-0.0527 -0.20678,-0.0585 -0.31448,-0.0627 -0.1753,-0.011 -0.31225,0.007 -0.47593,0.0717 -0.25953,0.13277 -0.50681,0.27171 -0.72652,0.45927 -0.13662,0.11663 0.041,-0.0229 -0.12472,0.10403 -0.22648,0.1637 -0.45098,0.32967 -0.66937,0.50409 -0.2816,0.22218 -0.564,0.44299 -0.85045,0.65883 -0.1201,0.0802 -0.23186,0.17162 -0.35334,0.24978 -0.0301,0.0194 -0.12275,0.0739 -0.0919,0.0557 0.40682,-0.24077 0.5092,-0.27424 0.29086,-0.19111 -0.17892,0.0557 -0.36137,0.0544 -0.544,0.0226 -0.19616,-0.0409 -0.38886,-0.10024 -0.5697,-0.18667 -0.18144,-0.0998 -0.35995,-0.21439 -0.50553,-0.36351 -0.0329,-0.0337 -0.0622,-0.0708 -0.0932,-0.10622 -0.18361,-0.25431 -0.3327,-0.53077 -0.50095,-0.795 -0.15844,-0.24069 -0.32827,-0.47442 -0.48117,-0.71865 -0.0143,-0.028 -0.0302,-0.0552 -0.0429,-0.084 -0.009,-0.0195 -0.0386,-0.0798 -0.0184,-0.10885 0.008,-0.0116 0.0501,-0.0265 0.0381,-0.019 -0.42089,0.26377 -0.57504,0.29433 -0.35038,0.23954 0.15021,-0.0152 0.28082,0.0521 0.39021,0.14917 0.10176,0.12213 0.13864,0.27042 0.1593,0.42415 0.0172,0.17496 0.0143,0.35099 0.0155,0.52655 -0.007,0.11218 0.006,0.22615 -0.003,0.33819 -10e-4,0.0124 -0.0218,0.12776 -0.0235,0.1375 -0.0168,0.13602 -0.0875,0.25337 -0.16726,0.36171 -0.0725,0.10777 -0.15882,0.2005 -0.20916,0.32168 -0.065,0.11219 -0.0694,0.2421 -0.0959,0.36617 -0.0319,0.2078 -0.0938,0.40811 -0.1433,0.61181 -0.0454,0.14787 -0.08,0.29777 -0.0946,0.45177 0.009,0.13264 0.0402,0.26228 0.0822,0.38803 0.051,0.13241 0.0695,0.27249 0.0928,0.41135 0.0247,0.16176 0.0401,0.32515 0.0719,0.48568 0.0359,0.16095 0.059,0.32414 0.0714,0.48847 -0.003,0.0639 0.002,0.0348 -0.0139,0.0878 0,0 0.49253,-0.23898 0.49253,-0.23898 v 0 c 0.007,-0.0631 0.005,-0.0298 0.003,-0.0998 -0.0171,-0.16501 -0.044,-0.32855 -0.078,-0.49094 -0.029,-0.16092 -0.043,-0.32423 -0.068,-0.48585 -0.0209,-0.142 -0.0477,-0.28282 -0.0968,-0.41827 -0.0352,-0.12027 -0.0692,-0.24301 -0.0706,-0.36919 0.017,-0.15007 0.0512,-0.2966 0.0917,-0.442 0.0513,-0.20397 0.10659,-0.40654 0.14424,-0.61372 0.0279,-0.12215 0.044,-0.24728 0.10637,-0.35828 0.0578,-0.11288 0.14396,-0.20517 0.21099,-0.31241 0.0761,-0.11881 0.14465,-0.23905 0.15714,-0.3828 0.0266,-0.15986 0.0194,-0.32025 0.0187,-0.48193 0.001,-0.17809 0.003,-0.35702 -0.0168,-0.53426 -0.0236,-0.1662 -0.0693,-0.32399 -0.17673,-0.45713 -0.11431,-0.10854 -0.2546,-0.18804 -0.41607,-0.18979 -0.26048,0.0145 -0.11997,-0.004 -0.58673,0.29997 -0.0161,0.0105 -0.0188,0.0345 -0.0211,0.0536 -0.009,0.0772 0.0563,0.14944 0.0858,0.21289 0.15654,0.24204 0.3317,0.47204 0.488,0.71443 0.1674,0.26773 0.32126,0.54405 0.50208,0.80321 0.0315,0.0377 0.0606,0.0775 0.0945,0.11315 0.14608,0.15396 0.32924,0.27006 0.50954,0.37871 0.18243,0.0933 0.37793,0.15426 0.57804,0.19806 0.18654,0.0416 0.37165,0.0495 0.55863,0.002 0.39446,-0.12062 0.73226,-0.40406 1.06689,-0.63913 0.28659,-0.21664 0.5678,-0.44004 0.85143,-0.66056 0.22279,-0.17521 0.45221,-0.34115 0.68091,-0.50847 0.0621,-0.0499 0.12234,-0.10189 0.18514,-0.15088 0.14653,-0.11432 0.45379,-0.30024 -0.25576,0.12166 0.15729,-0.0758 0.28222,-0.099 0.45633,-0.087 0.0998,0.002 0.20226,0.003 0.29642,0.0399 0.11266,0.0646 0.13274,0.12584 0.14642,0.25457 0.0192,0.12135 0.0376,0.24299 0.0933,0.35419 0.045,0.0961 0.0644,0.17356 0.0278,0.27776 -0.0471,0.11892 -0.0883,0.23768 -0.0632,0.36796 0.007,0.0222 0.01,0.0459 0.0201,0.0668 0.0438,0.0895 0.14488,0.10841 0.23405,0.0966 0.30173,-0.0793 0.55393,-0.27851 0.81596,-0.44205 0.0159,-0.0148 0.0338,-0.0275 0.0475,-0.0443 0.0801,-0.0983 0.0504,-0.22547 -0.0138,-0.32176 -0.1607,-0.18177 -0.35033,-0.34126 -0.55557,-0.47024 -0.17371,-0.10771 -0.35484,-0.2036 -0.52413,-0.31803 -0.14746,-0.10085 -0.29568,-0.20296 -0.45742,-0.27973 -0.15504,-0.075 -0.3108,-0.15278 -0.4794,-0.19264 -0.1,-0.021 -0.20104,-0.0465 -0.30401,-0.038 -0.20943,0.0122 -0.41651,0.0459 -0.62408,0.075 -0.49151,0.0678 -0.98639,0.10251 -1.47915,0.16014 -0.13861,0.016 -0.2693,0.0269 -0.40531,0.0567 -0.31304,0.0687 -0.60788,0.20344 -0.90491,0.31917 -0.45392,0.20474 -0.89674,0.43174 -1.34604,0.64613 0,0 -0.42589,0.33659 -0.42589,0.33659 z" />
      <path
         style="fill:#321a05;fill-opacity:1;stroke-width:0.1"
         id="path889-5-5-0-1-2-3"
         d="m 105.76828,177.37383 c 0.26186,0.0321 0.51461,0.11134 0.77401,0.15896 0.23024,0.0299 0.45941,0.0676 0.68964,0.0975 0.22985,0.0575 0.4537,0.12139 0.68981,0.149 0.28496,0.0373 0.57089,0.0146 0.85581,-0.007 0.22461,-0.0194 0.44991,-0.0273 0.67525,-0.0311 0.2104,-0.003 0.42082,-0.002 0.63123,-0.003 0.58593,0.0274 0.98498,-0.2031 1.44342,-0.70943 0.4086,-0.11252 -0.0276,0.003 -0.87517,0.5035 -0.008,0.005 0.008,0.017 0.0105,0.0261 0.007,0.0279 0.0118,0.0561 0.0156,0.0845 0.0138,0.10187 0.015,0.1629 0.0207,0.26685 0.0101,0.27257 0.006,0.54539 0.005,0.81808 0.008,0.29954 -0.012,0.59995 0.009,0.8989 0.0353,0.26192 0.0244,0.52927 0.0765,0.7883 0,0 0.95937,-0.51047 0.95937,-0.51047 v 0 c -0.04,-0.25679 -0.0438,-0.51838 -0.072,-0.77671 -0.0169,-0.29733 -0.006,-0.59534 -0.005,-0.89298 0.001,-0.27428 8e-4,-0.54864 -0.01,-0.82275 -0.0384,-0.67599 -0.17308,-0.94982 -1.14353,0.0392 -0.28918,0.30725 -0.0657,0.0564 0.80233,-0.41183 0.0219,-0.0118 -0.0372,0.0346 -0.0603,0.0438 -0.0921,0.0366 -0.20015,0.002 -0.29491,0.0142 -0.21071,-5.3e-4 -0.42143,-0.001 -0.63213,0.001 -0.2275,0.003 -0.4551,0.008 -0.68193,0.0269 -0.28141,0.025 -0.56367,0.0594 -0.84603,0.0257 -0.23502,-0.0232 -0.46113,-0.0729 -0.68438,-0.15129 -0.23104,-0.0253 -0.4591,-0.0697 -0.6907,-0.0901 -0.25906,-0.041 -0.50975,-0.11321 -0.7648,-0.1691 0,0 -0.89783,0.63304 -0.89783,0.63304 z" />
    </g>
  </g>
  <g
     transform="translate(-71.584046,-44.24915)"
     inkscape:label="reka2"
     id="layer7"
     inkscape:groupmode="layer" />
  <g
     transform="translate(-71.584046,-44.24915)"
     inkscape:label="reka1"
     id="layer6"
     inkscape:groupmode="layer" />
  <g
     transform="translate(-71.584046,-44.24915)"
     inkscape:label="glowa"
     id="layer3"
     inkscape:groupmode="layer" />
</svg>
