<?xml version="1.0" encoding="UTF-8" standalone="no"?>
<svg
   xmlns:dc="http://purl.org/dc/elements/1.1/"
   xmlns:cc="http://creativecommons.org/ns#"
   xmlns:rdf="http://www.w3.org/1999/02/22-rdf-syntax-ns#"
   xmlns:svg="http://www.w3.org/2000/svg"
   xmlns="http://www.w3.org/2000/svg"
   xmlns:sodipodi="http://sodipodi.sourceforge.net/DTD/sodipodi-0.dtd"
   xmlns:inkscape="http://www.inkscape.org/namespaces/inkscape"
   inkscape:export-ydpi="241.905"
   inkscape:export-xdpi="241.905"
   inkscape:export-filename="C:\Users\260862\Desktop\bartender.png"
   width="44.273861mm"
   height="115.02194mm"
   viewBox="0 0 44.273861 115.02194"
   version="1.1"
   id="svg8"
   inkscape:version="1.0 (4035a4fb49, 2020-05-01)"
   sodipodi:docname="reka2.svg">
  <defs
     id="defs2">
    <clipPath
       clipPathUnits="userSpaceOnUse"
       id="clipPath4045">
      <path
         style="fill:none;stroke:#000000;stroke-width:0.264583px;stroke-linecap:butt;stroke-linejoin:miter;stroke-opacity:1"
         d="M 87.197134,57.598109 C 88.69643,71.309833 86.336415,84.020996 68.797741,92.79695 L 14.399527,175.72756 -18.399396,142.39532 27.465763,50.665004 Z"
         id="path4047"
         sodipodi:nodetypes="cccccc" />
    </clipPath>
  </defs>
  <sodipodi:namedview
     inkscape:guide-bbox="true"
     showguides="true"
     id="base"
     pagecolor="#ffffff"
     bordercolor="#666666"
     borderopacity="1.0"
     inkscape:pageopacity="0.0"
     inkscape:pageshadow="2"
     inkscape:zoom="0.58981277"
     inkscape:cx="-220.44977"
     inkscape:cy="389.17523"
     inkscape:document-units="mm"
     inkscape:current-layer="layer7"
     inkscape:document-rotation="0"
     showgrid="false"
     inkscape:snap-others="true"
     inkscape:object-nodes="true"
     inkscape:snap-global="false"
     inkscape:window-width="1920"
     inkscape:window-height="1001"
     inkscape:window-x="-9"
     inkscape:window-y="-9"
     inkscape:window-maximized="1" />
  <metadata
     id="metadata5">
    <rdf:RDF>
      <cc:Work
         rdf:about="">
        <dc:format>image/svg+xml</dc:format>
        <dc:type
           rdf:resource="http://purl.org/dc/dcmitype/StillImage" />
        <dc:title></dc:title>
      </cc:Work>
    </rdf:RDF>
  </metadata>
  <g
     transform="translate(-127.78771,-54.463105)"
     inkscape:label="noga2"
     id="layer5"
     inkscape:groupmode="layer" />
  <g
     transform="translate(-127.78771,-54.463105)"
     inkscape:label="noga1"
     id="layer4"
     inkscape:groupmode="layer" />
  <g
     transform="translate(-127.78771,-54.463105)"
     inkscape:label="korpus"
     id="layer8"
     inkscape:groupmode="layer" />
  <g
     sodipodi:insensitive="true"
     transform="translate(-127.78771,-54.463105)"
     inkscape:label="reka2"
     id="layer7"
     inkscape:groupmode="layer">
    <g
       transform="rotate(-2.1386954,163.41983,-1137.3034)"
       inkscape:transform-center-y="47.613526"
       inkscape:transform-center-x="-14.768799"
       id="g3121">
      <path
         style="fill:#f7ac79;fill-opacity:1;stroke:none;stroke-width:0.264583px;stroke-linecap:butt;stroke-linejoin:miter;stroke-opacity:1"
         d="m 105.21724,108.74117 5.54395,45.56692 1.04063,5.4616 -0.6906,7.2026 c 6.1135,2.27204 8.80155,0.0813 10.749,-2.21739 l -2.17116,-8.85249 -2.75938,-53.21958 C 104.71612,71.510833 109.12462,75.660721 95.011337,55.858787 c -10.47775,7.966379 -10.567252,8.687249 2.834209,36.180428 z"
         id="path895-3-2-1"
         sodipodi:nodetypes="cccccccccc" />
      <path
         id="path1660-9-5-5"
         d="m 111.65773,158.83808 c -4.65086,8.01273 -3.1348,8.52831 -3.1348,8.52831 0,0 -3.45007,2.04242 -0.0827,0.0452 3.36731,-1.99729 5.04959,-7.47847 5.04959,-7.47847 z"
         style="fill:#f7ac79;fill-opacity:1;stroke:none;stroke-width:0.264583px;stroke-linecap:butt;stroke-linejoin:miter;stroke-opacity:1" />
      <path
         sodipodi:nodetypes="czzzsscccc"
         id="path1422-5-0-1"
         d="m 88.966671,83.189625 c 2.770128,9.145196 13.264169,23.860565 12.935689,26.592885 -0.32847,2.73232 3.58866,20.22928 3.69186,31.73647 0.10321,11.50718 -0.47902,15.95791 0.34995,15.93797 0.82896,-0.0199 14.4423,-1.30861 17.68629,-1.19907 0.59102,0.02 -0.87061,-2.56891 -1.66359,-13.94874 -0.79297,-11.37983 -1.91226,-36.50616 -1.91226,-36.50616 -4.31562,-14.514045 -17.61635,-59.834593 -30.40736,-52.316566 -9.645158,6.361271 -7.194278,5.531615 -2.608052,26.642999 z"
         style="fill:#564738;fill-opacity:1;stroke:none;stroke-width:0.264583px;stroke-linecap:butt;stroke-linejoin:miter;stroke-opacity:1" />
    </g>
  </g>
  <g
     transform="translate(-127.78771,-54.463105)"
     inkscape:label="reka1"
     id="layer6"
     inkscape:groupmode="layer" />
  <g
     transform="translate(-127.78771,-54.463105)"
     inkscape:label="glowa"
     id="layer3"
     inkscape:groupmode="layer" />
</svg>
