<?xml version="1.0" encoding="UTF-8" standalone="no"?>
<svg
   xmlns:dc="http://purl.org/dc/elements/1.1/"
   xmlns:cc="http://creativecommons.org/ns#"
   xmlns:rdf="http://www.w3.org/1999/02/22-rdf-syntax-ns#"
   xmlns:svg="http://www.w3.org/2000/svg"
   xmlns="http://www.w3.org/2000/svg"
   xmlns:sodipodi="http://sodipodi.sourceforge.net/DTD/sodipodi-0.dtd"
   xmlns:inkscape="http://www.inkscape.org/namespaces/inkscape"
   inkscape:export-ydpi="241.905"
   inkscape:export-xdpi="241.905"
   inkscape:export-filename="C:\Users\260862\Desktop\bartender.png"
   width="42.56464mm"
   height="47.43972mm"
   viewBox="0 0 42.564641 47.439721"
   version="1.1"
   id="svg8"
   inkscape:version="1.0 (4035a4fb49, 2020-05-01)"
   sodipodi:docname="head.svg">
  <defs
     id="defs2">
    <clipPath
       clipPathUnits="userSpaceOnUse"
       id="clipPath4045">
      <path
         style="fill:none;stroke:#000000;stroke-width:0.264583px;stroke-linecap:butt;stroke-linejoin:miter;stroke-opacity:1"
         d="M 87.197134,57.598109 C 88.69643,71.309833 86.336415,84.020996 68.797741,92.79695 L 14.399527,175.72756 -18.399396,142.39532 27.465763,50.665004 Z"
         id="path4047"
         sodipodi:nodetypes="cccccc" />
    </clipPath>
  </defs>
  <sodipodi:namedview
     inkscape:guide-bbox="true"
     showguides="true"
     id="base"
     pagecolor="#ffffff"
     bordercolor="#666666"
     borderopacity="1.0"
     inkscape:pageopacity="0.0"
     inkscape:pageshadow="2"
     inkscape:zoom="0.5314799"
     inkscape:cx="-257.91596"
     inkscape:cy="574.6595"
     inkscape:document-units="mm"
     inkscape:current-layer="layer2"
     inkscape:document-rotation="0"
     showgrid="false"
     inkscape:snap-others="true"
     inkscape:object-nodes="true"
     inkscape:snap-global="false"
     inkscape:window-width="1920"
     inkscape:window-height="1001"
     inkscape:window-x="-9"
     inkscape:window-y="-9"
     inkscape:window-maximized="1" />
  <metadata
     id="metadata5">
    <rdf:RDF>
      <cc:Work
         rdf:about="">
        <dc:format>image/svg+xml</dc:format>
        <dc:type
           rdf:resource="http://purl.org/dc/dcmitype/StillImage" />
        <dc:title></dc:title>
      </cc:Work>
    </rdf:RDF>
  </metadata>
  <g
     sodipodi:insensitive="true"
     transform="translate(-89.549367,-17.031828)"
     style="display:inline"
     inkscape:label="head"
     id="layer4"
     inkscape:groupmode="layer">
    <g
       id="g892">
      <g
         inkscape:transform-center-x="0.29042004"
         transform="rotate(-5.7824166,125.40996,52.299047)"
         inkscape:transform-center-y="-22.151214"
         id="g899">
        <g
           inkscape:transform-center-y="-9.162308"
           inkscape:transform-center-x="-0.75356143"
           transform="rotate(0.54425313,107.23623,99.809111)"
           id="g1290">
          <path
             sodipodi:nodetypes="ccccccc"
             id="path899-9-8"
             d="m 96.739842,23.789072 c -3.965412,8.443712 -1.6982,20.021427 0.251352,24.44932 3.274716,5.802293 7.258846,9.240458 12.859536,11.806822 7.9799,-3.112928 10.54829,-9.54955 12.62832,-12.697283 1.5232,-3.41133 2.67078,-10.036075 -0.24036,-19.573539 -13.67563,-7.763615 -14.53056,-12.518636 -25.498798,-3.985323 z"
             style="display:inline;fill:#f8dac6;fill-opacity:1;stroke:none;stroke-width:0.264583px;stroke-linecap:butt;stroke-linejoin:miter;stroke-opacity:1"
             inkscape:transform-center-x="0.15465838"
             inkscape:transform-center-y="-15.782403" />
        </g>
        <path
           style="fill:#ffe57e;fill-opacity:1;stroke:none;stroke-width:0.131821"
           d="m 126.71529,61.591686 c -0.89753,-0.123015 -1.58137,-0.302672 -2.74312,-0.720661 -1.08094,-0.388914 -5.64032,-1.531728 -7.3584,-1.844395 -0.74018,-0.134699 -1.41828,-0.282805 -1.5069,-0.329123 -0.1441,-0.07531 -0.53697,-0.998447 -0.55914,-1.313823 -0.005,-0.068 0.2938,-0.361288 0.6635,-0.651745 1.37733,-1.082085 3.01474,-2.863424 4.28694,-4.663752 0.96821,-1.370145 3.07629,-4.896191 3.37838,-5.650804 0.40529,-1.012391 0.80614,-2.589012 1.04953,-4.128008 0.15337,-0.96978 0.19986,-1.913369 0.19781,-4.01529 -0.002,-1.511184 -0.0411,-2.890473 -0.088,-3.065087 l -0.0853,-0.317479 0.3865,0.294801 c 0.49931,0.380842 1.09935,0.482984 1.45776,0.248145 0.69795,-0.457311 1.05687,-2.017699 1.17055,-5.088919 l 0.0781,-2.108634 0.53526,3.252266 c 0.94753,5.757331 1.41769,9.685034 1.48339,12.392263 0.0641,2.643029 0.27472,3.954349 1.94511,12.111895 0.60893,2.973782 0.58307,3.98104 -0.12077,4.703083 -0.77488,0.794924 -1.10926,0.935701 -2.30449,0.970235 -0.59945,0.01733 -1.43945,-0.0164 -1.86666,-0.07497 z"
           id="path269" />
        <path
           style="fill:#ffe57e;fill-opacity:1;stroke:none;stroke-width:0.131821"
           d="m 92.76632,41.130719 c 0.0019,-0.97798 0.284401,-4.318077 0.505195,-5.971839 0.88541,-6.631752 2.771392,-11.046557 6.156856,-14.412294 2.481349,-2.466891 5.423589,-4.0968 9.228249,-5.11216 1.49033,-0.397728 1.76161,-0.392307 4.23562,0.08464 4.96606,0.957378 8.66906,3.317397 11.69581,7.454054 0.67199,0.918404 1.79564,2.767225 2.58794,4.258126 l 0.69097,1.300214 v 2.248575 c 0,4.575717 -0.4807,6.533933 -1.60395,6.533933 -0.68175,0 -1.64785,-0.899581 -4.28378,-3.988843 -0.74017,-0.867468 -2.047,-2.399731 -2.90407,-3.405029 -3.83143,-4.49405 -6.752,-7.313605 -8.49864,-8.204675 l -0.42581,-0.217233 -0.68613,0.278798 c -2.78153,1.130235 -5.11884,3.371104 -7.45438,7.14678 -0.33382,0.539654 -1.37214,2.383268 -2.307389,4.096922 -2.584447,4.735486 -3.403748,5.962364 -4.910211,7.352897 -0.621972,0.574109 -1.711476,1.310167 -1.943592,1.313072 -0.04626,5.29e-4 -0.08347,-0.339596 -0.08269,-0.755941 z"
           id="path271" />
        <path
           style="fill:#ffe57e;fill-opacity:1;stroke:none;stroke-width:0.131821"
           d="m 89.60134,60.707259 c -0.688207,-0.579089 -0.943898,-1.966751 -0.697214,-3.783849 0.198456,-1.461844 0.558972,-2.62586 1.572181,-5.076195 1.34661,-3.256624 1.709441,-4.75878 2.126419,-8.803553 0.270552,-2.624404 0.300588,-2.803681 0.469731,-2.803681 0.261974,0 1.450168,-0.81711 2.103538,-1.446585 l 0.684638,-0.659601 v 0.437155 c 0,0.743357 0.44495,3.65225 0.803111,5.250405 0.814049,3.632364 1.596171,5.300681 3.993756,8.518919 0.88715,1.19081 3.4673,3.741922 4.7131,4.660048 0.59987,0.442097 1.02004,0.827984 0.98916,0.908452 -0.0295,0.07694 -0.11426,0.447802 -0.18829,0.824135 -0.11411,0.579972 -0.17085,0.684257 -0.37236,0.684358 -1.07415,5.29e-4 -7.917674,0.370755 -9.426762,0.509976 -2.303105,0.212468 -3.473418,0.409168 -4.627658,0.777788 -1.146243,0.366064 -1.710256,0.366651 -2.14335,0.0021 z"
           id="path273" />
      </g>
    </g>
  </g>
  <g
     transform="translate(-89.549367,-17.031828)"
     style="display:inline"
     inkscape:label="left_leg"
     id="layer5"
     inkscape:groupmode="layer" />
  <g
     transform="translate(-89.549367,-17.031828)"
     style="display:inline"
     inkscape:label="right_leg"
     id="layer6"
     inkscape:groupmode="layer" />
  <g
     transform="translate(-89.549367,-17.031828)"
     style="display:inline"
     inkscape:label="left_arm"
     id="layer2"
     inkscape:groupmode="layer" />
  <g
     transform="translate(-89.549367,-17.031828)"
     style="display:inline"
     inkscape:label="right_arm"
     id="layer3"
     inkscape:groupmode="layer" />
  <g
     transform="translate(-89.549367,-17.031828)"
     style="display:inline"
     inkscape:label="torso"
     inkscape:groupmode="layer"
     id="layer1" />
</svg>
