<?xml version="1.0" encoding="UTF-8" standalone="no"?>
<svg
   xmlns:dc="http://purl.org/dc/elements/1.1/"
   xmlns:cc="http://creativecommons.org/ns#"
   xmlns:rdf="http://www.w3.org/1999/02/22-rdf-syntax-ns#"
   xmlns:svg="http://www.w3.org/2000/svg"
   xmlns="http://www.w3.org/2000/svg"
   xmlns:sodipodi="http://sodipodi.sourceforge.net/DTD/sodipodi-0.dtd"
   xmlns:inkscape="http://www.inkscape.org/namespaces/inkscape"
   sodipodi:docname="glowa.svg"
   inkscape:version="1.0 (4035a4fb49, 2020-05-01)"
   id="svg8"
   version="1.1"
   viewBox="0 0 39.73363 48.634574"
   height="48.634575mm"
   width="39.733631mm"
   inkscape:export-filename="C:\Users\260862\Desktop\bartender.png"
   inkscape:export-xdpi="241.905"
   inkscape:export-ydpi="241.905">
  <defs
     id="defs2">
    <clipPath
       id="clipPath4045"
       clipPathUnits="userSpaceOnUse">
      <path
         sodipodi:nodetypes="cccccc"
         id="path4047"
         d="M 87.197134,57.598109 C 88.69643,71.309833 86.336415,84.020996 68.797741,92.79695 L 14.399527,175.72756 -18.399396,142.39532 27.465763,50.665004 Z"
         style="fill:none;stroke:#000000;stroke-width:0.264583px;stroke-linecap:butt;stroke-linejoin:miter;stroke-opacity:1" />
    </clipPath>
  </defs>
  <sodipodi:namedview
     inkscape:window-maximized="1"
     inkscape:window-y="-9"
     inkscape:window-x="-9"
     inkscape:window-height="1001"
     inkscape:window-width="1920"
     inkscape:snap-global="false"
     inkscape:object-nodes="true"
     inkscape:snap-others="true"
     showgrid="false"
     inkscape:document-rotation="0"
     inkscape:current-layer="layer3"
     inkscape:document-units="mm"
     inkscape:cy="562.4169"
     inkscape:cx="79.684599"
     inkscape:zoom="0.61064659"
     inkscape:pageshadow="2"
     inkscape:pageopacity="0.0"
     borderopacity="1.0"
     bordercolor="#666666"
     pagecolor="#ffffff"
     id="base"
     showguides="true"
     inkscape:guide-bbox="true" />
  <metadata
     id="metadata5">
    <rdf:RDF>
      <cc:Work
         rdf:about="">
        <dc:format>image/svg+xml</dc:format>
        <dc:type
           rdf:resource="http://purl.org/dc/dcmitype/StillImage" />
        <dc:title></dc:title>
      </cc:Work>
    </rdf:RDF>
  </metadata>
  <g
     transform="translate(-89.449946,-2.2035385)"
     inkscape:label="noga2"
     id="layer7"
     inkscape:groupmode="layer" />
  <g
     transform="translate(-89.449946,-2.2035385)"
     inkscape:label="noga1"
     id="layer6"
     inkscape:groupmode="layer" />
  <g
     transform="translate(-89.449946,-2.2035385)"
     style="display:inline"
     inkscape:label="korpus"
     id="layer8"
     inkscape:groupmode="layer" />
  <g
     transform="translate(-89.449946,-2.2035385)"
     inkscape:label="reka2"
     id="layer5"
     inkscape:groupmode="layer" />
  <g
     transform="translate(-89.449946,-2.2035385)"
     style="display:inline"
     inkscape:label="reka1"
     id="layer4"
     inkscape:groupmode="layer" />
  <g
     sodipodi:insensitive="true"
     transform="translate(-89.449946,-2.2035385)"
     inkscape:label="glowa"
     id="layer3"
     inkscape:groupmode="layer">
    <g
       id="g3243"
       inkscape:transform-center-x="0.55401164"
       inkscape:transform-center-y="-22.868331"
       transform="matrix(1.1127549,0.1434951,-0.15037677,1.0618321,19.695934,-22.417268)">
      <path
         sodipodi:nodetypes="cccccc"
         id="path899-9"
         d="m 70.957012,23.361295 c -0.545559,9.355868 -6.74e-4,17.636924 1.989153,27.294958 3.138858,8.073735 7.791678,4.769384 13.665067,6.628786 7.519114,-4.07247 13.162734,-3.825413 13.876788,-11.048023 C 99.755936,36.637429 99.255813,29.808728 96.270732,20.69006 76.854091,12.656494 81.046996,16.509389 70.957012,23.361295 Z"
         style="fill:#f8b68a;fill-opacity:1;stroke:none;stroke-width:0.264583px;stroke-linecap:butt;stroke-linejoin:miter;stroke-opacity:1" />
      <path
         sodipodi:nodetypes="ccccccc"
         d="m 96.664058,46.356773 -0.882621,-3.921899 c -2.639934,0.177163 -6.369624,-1.488995 -10.382688,-1.263268 -5.476961,1.408531 -7.141507,3.198631 -10.040573,3.692772 l 0.451193,3.763837 c 2.35983,-1.633985 6.35958,-2.106644 9.878051,-5.035096 4.557037,1.971049 7.784069,1.501045 10.976638,2.763654 z"
         style="fill:#6a360b;fill-opacity:1;stroke:none;stroke-width:0.264583px;stroke-linecap:butt;stroke-linejoin:miter;stroke-opacity:1"
         id="path901-8" />
      <path
         sodipodi:nodetypes="cscsscccccccc"
         id="path906-1"
         d="m 68.248335,20.418321 c -1.113638,2.081631 -2.345671,4.775825 -1.528554,9.298144 0.830651,4.59722 3.160595,7.489914 3.452569,8.568094 2.446946,-3.795624 0.0084,-7.701877 5.959067,-15.311973 1.130537,-1.445794 16.233148,-2.094942 16.233148,-2.094942 2.981739,1.618646 1.744747,5.681362 6.734022,9.330621 0.06048,-0.654321 1.421653,1.653277 2.717733,3.621242 0.68798,-1.895248 0.5236,-6.707549 -0.33263,-9.695964 -0.10247,-0.344566 -4.214422,-6.60112 -4.278927,-7.01167 -2.258424,-1.662258 -5.307804,-4.920884 -12.649757,-5.29439 -2.368668,-0.01396 -8.716898,1.866283 -8.716898,1.866283 l -5.38873,3.910317 z"
         style="fill:#6a360b;fill-opacity:1;stroke:none;stroke-width:0.292655px;stroke-linecap:butt;stroke-linejoin:miter;stroke-opacity:1" />
    </g>
  </g>
</svg>
