<?xml version="1.0" encoding="UTF-8" standalone="no"?>
<svg
   xmlns:dc="http://purl.org/dc/elements/1.1/"
   xmlns:cc="http://creativecommons.org/ns#"
   xmlns:rdf="http://www.w3.org/1999/02/22-rdf-syntax-ns#"
   xmlns:svg="http://www.w3.org/2000/svg"
   xmlns="http://www.w3.org/2000/svg"
   xmlns:sodipodi="http://sodipodi.sourceforge.net/DTD/sodipodi-0.dtd"
   xmlns:inkscape="http://www.inkscape.org/namespaces/inkscape"
   sodipodi:docname="reka2.svg"
   inkscape:version="1.0 (4035a4fb49, 2020-05-01)"
   id="svg8"
   version="1.1"
   viewBox="0 0 34.822314 116.45968"
   height="116.45968mm"
   width="34.822315mm"
   inkscape:export-filename="C:\Users\260862\Desktop\bartender.png"
   inkscape:export-xdpi="241.905"
   inkscape:export-ydpi="241.905">
  <defs
     id="defs2">
    <clipPath
       id="clipPath4045"
       clipPathUnits="userSpaceOnUse">
      <path
         sodipodi:nodetypes="cccccc"
         id="path4047"
         d="M 87.197134,57.598109 C 88.69643,71.309833 86.336415,84.020996 68.797741,92.79695 L 14.399527,175.72756 -18.399396,142.39532 27.465763,50.665004 Z"
         style="fill:none;stroke:#000000;stroke-width:0.264583px;stroke-linecap:butt;stroke-linejoin:miter;stroke-opacity:1" />
    </clipPath>
  </defs>
  <sodipodi:namedview
     inkscape:window-maximized="1"
     inkscape:window-y="-9"
     inkscape:window-x="-9"
     inkscape:window-height="1001"
     inkscape:window-width="1920"
     inkscape:snap-global="false"
     inkscape:object-nodes="true"
     inkscape:snap-others="true"
     showgrid="false"
     inkscape:document-rotation="0"
     inkscape:current-layer="layer3"
     inkscape:document-units="mm"
     inkscape:cy="373.11088"
     inkscape:cx="-245.91498"
     inkscape:zoom="0.61064659"
     inkscape:pageshadow="2"
     inkscape:pageopacity="0.0"
     borderopacity="1.0"
     bordercolor="#666666"
     pagecolor="#ffffff"
     id="base"
     showguides="true"
     inkscape:guide-bbox="true" />
  <metadata
     id="metadata5">
    <rdf:RDF>
      <cc:Work
         rdf:about="">
        <dc:format>image/svg+xml</dc:format>
        <dc:type
           rdf:resource="http://purl.org/dc/dcmitype/StillImage" />
        <dc:title></dc:title>
      </cc:Work>
    </rdf:RDF>
  </metadata>
  <g
     transform="translate(-130.85819,-54.766041)"
     inkscape:label="noga2"
     id="layer7"
     inkscape:groupmode="layer" />
  <g
     transform="translate(-130.85819,-54.766041)"
     inkscape:label="noga1"
     id="layer6"
     inkscape:groupmode="layer" />
  <g
     transform="translate(-130.85819,-54.766041)"
     style="display:inline"
     inkscape:label="korpus"
     id="layer8"
     inkscape:groupmode="layer" />
  <g
     sodipodi:insensitive="true"
     transform="translate(-130.85819,-54.766041)"
     inkscape:label="reka2"
     id="layer5"
     inkscape:groupmode="layer">
    <g
       id="g3121"
       inkscape:transform-center-x="-13.760076"
       inkscape:transform-center-y="47.044685"
       transform="rotate(3.3500613,80.244217,874.5205)">
      <path
         sodipodi:nodetypes="cccccccccc"
         id="path895-3-2-1"
         d="m 105.21724,108.74117 5.54395,45.56692 1.04063,5.4616 -0.6906,7.2026 c 6.1135,2.27204 8.80155,0.0813 10.749,-2.21739 l -2.17116,-8.85249 -2.75938,-53.21958 C 104.71612,71.510833 109.12462,75.660721 95.011337,55.858787 c -10.47775,7.966379 -10.567252,8.687249 2.834209,36.180428 z"
         style="fill:#f8b68a;fill-opacity:1;stroke:none;stroke-width:0.264583px;stroke-linecap:butt;stroke-linejoin:miter;stroke-opacity:1" />
      <path
         style="fill:#f8b68a;fill-opacity:1;stroke:none;stroke-width:0.264583px;stroke-linecap:butt;stroke-linejoin:miter;stroke-opacity:1"
         d="m 111.65773,158.83808 c -4.65086,8.01273 -3.1348,8.52831 -3.1348,8.52831 0,0 -3.45007,2.04242 -0.0827,0.0452 3.36731,-1.99729 5.04959,-7.47847 5.04959,-7.47847 z"
         id="path1660-9-5-5" />
      <path
         style="fill:#eedcd1;fill-opacity:1;stroke:none;stroke-width:0.264583px;stroke-linecap:butt;stroke-linejoin:miter;stroke-opacity:1"
         d="m 89.728245,80.01389 c 2.770128,9.145196 12.502595,27.0363 12.174115,29.76862 -0.32847,2.73232 3.58866,20.22928 3.69186,31.73647 0.10321,11.50718 -0.47902,15.95791 0.34995,15.93797 0.82896,-0.0199 14.4423,-1.30861 17.68629,-1.19907 0.59102,0.02 -0.87061,-2.56891 -1.66359,-13.94874 -0.79297,-11.37983 -1.91226,-36.50616 -1.91226,-36.50616 C 115.73899,91.288935 102.43826,45.968387 89.64725,53.486414 81.577664,65.168027 82.747507,66.239107 86.721992,76.418421 Z"
         id="path1422-5-0-1"
         sodipodi:nodetypes="czzzsscccc" />
    </g>
  </g>
  <g
     transform="translate(-130.85819,-54.766041)"
     style="display:inline"
     inkscape:label="reka1"
     id="layer4"
     inkscape:groupmode="layer" />
  <g
     transform="translate(-130.85819,-54.766041)"
     inkscape:label="glowa"
     id="layer3"
     inkscape:groupmode="layer" />
</svg>
