<?xml version="1.0" encoding="UTF-8" standalone="no"?>
<!-- Created with Inkscape (http://www.inkscape.org/) -->

<svg
   xmlns:dc="http://purl.org/dc/elements/1.1/"
   xmlns:cc="http://creativecommons.org/ns#"
   xmlns:rdf="http://www.w3.org/1999/02/22-rdf-syntax-ns#"
   xmlns:svg="http://www.w3.org/2000/svg"
   xmlns="http://www.w3.org/2000/svg"
   xmlns:sodipodi="http://sodipodi.sourceforge.net/DTD/sodipodi-0.dtd"
   xmlns:inkscape="http://www.inkscape.org/namespaces/inkscape"
   width="210mm"
   height="297mm"
   viewBox="0 0 210 297"
   version="1.1"
   id="svg4631"
   inkscape:version="0.92.4 (5da689c313, 2019-01-14)"
   sodipodi:docname="kupiec4.svg">
  <defs
     id="defs4625" />
  <sodipodi:namedview
     id="base"
     pagecolor="#ffffff"
     bordercolor="#666666"
     borderopacity="1.0"
     inkscape:pageopacity="0.0"
     inkscape:pageshadow="2"
     inkscape:zoom="0.7"
     inkscape:cx="886.40324"
     inkscape:cy="597.28057"
     inkscape:document-units="mm"
     inkscape:current-layer="layer1"
     showgrid="false"
     showguides="true"
     inkscape:window-width="1920"
     inkscape:window-height="1000"
     inkscape:window-x="-11"
     inkscape:window-y="-11"
     inkscape:window-maximized="1" />
  <metadata
     id="metadata4628">
    <rdf:RDF>
      <cc:Work
         rdf:about="">
        <dc:format>image/svg+xml</dc:format>
        <dc:type
           rdf:resource="http://purl.org/dc/dcmitype/StillImage" />
        <dc:title></dc:title>
      </cc:Work>
    </rdf:RDF>
  </metadata>
  <g
     inkscape:label="Layer 1"
     inkscape:groupmode="layer"
     id="layer1">
    <path
       style="fill:#e9c6af;stroke-width:0.23881996"
       d="m 121.47399,32.403166 c 0,12.841969 -8.57142,24.249956 -14.04512,24.722432 -7.917738,0.68344 -12.988236,-10.733097 -12.988236,-23.575072 0,-12.841975 6.357466,-23.063463 14.294766,-23.063461 7.93729,6e-6 12.73859,9.074133 12.73859,21.916101 z"
       id="path4635"
       inkscape:connector-curvature="0"
       sodipodi:nodetypes="sssss" />
    <path
       style="fill:#e9c6af;stroke-width:0.26458332"
       d="m 110.91685,57.593319 c 1.46998,14.188631 -3.51208,9.955793 -7.34991,9.955791 -3.837838,10e-7 -6.280838,3.698296 -6.548107,-9.955791 -0.09461,-4.833266 3.111177,-8.753078 6.949007,-8.753077 3.83783,-2e-6 6.45084,3.944622 6.94901,8.753077 z"
       id="path4670"
       inkscape:connector-curvature="0"
       sodipodi:nodetypes="sssss" />
    <path
       style="fill:#e9c6af;stroke:#000000;stroke-width:0.26458332px;stroke-linecap:butt;stroke-linejoin:miter;stroke-opacity:1"
       d="m 104.42525,34.11356 -0.85044,2.834822 -0.75596,2.83482 0.85045,1.039434 2.64583,-0.283482"
       id="path4678"
       inkscape:connector-curvature="0" />
    <path
       style="fill:#483737;stroke:#000000;stroke-width:0.24271198px;stroke-linecap:butt;stroke-linejoin:miter;stroke-opacity:1"
       d="m 93.965352,37.470006 -0.31634,4.56048 0.31634,4.75049 -0.31634,7.6008 3.40068,4.7505 1.89806,1.71018 7.987638,8.6459 6.08959,-6.7457 3.08433,-5.41557 1.34446,-3.70539 1.97714,-5.98562 1.26537,-5.32056 0.31634,-3.42036 0.46137,-6.49199 -0.14502,-3.484053 -1.50263,2.090219 -0.15817,5.700594 -1.58172,6.55569 -2.60982,6.93572 -4.74513,1.14012 -3.47977,0.76008 -4.74513,-1.99521 -4.428798,-3.80039 -2.2144,-7.79082 -1.0242,-4.95389 0.23335,-6.542312 -0.47452,-1.805191 -1.42354,9.786023 z"
       id="path5307"
       inkscape:connector-curvature="0"
       sodipodi:nodetypes="ccccccccccccccccccccccccccccc" />
    <path
       style="fill:#483737;stroke:#000000;stroke-width:0.26458332px;stroke-linecap:butt;stroke-linejoin:miter;stroke-opacity:1"
       d="m 96.577822,48.972912 3.968758,-2.740328 4.72469,-1.133928 2.83482,0.661458 7.37054,4.441222 1.13393,-3.118305 -1.88988,-2.078869 -8.50447,-2.456846 -2.64583,0.283482 -8.882438,3.496281 z"
       id="path5313"
       inkscape:connector-curvature="0"
       sodipodi:nodetypes="ccccccccccc" />
    <path
       style="fill:#483737;stroke:#000000;stroke-width:0.26458332px;stroke-linecap:butt;stroke-linejoin:miter;stroke-opacity:1"
       d="m 94.34282,34.277223 2.929316,-0.377979 5.102684,0.566965 V 33.143293 L 98.59505,32.85981 h -3.307289 z"
       id="path5325"
       inkscape:connector-curvature="0" />
    <path
       style="fill:#483737;stroke:#000000;stroke-width:0.26458332px;stroke-linecap:butt;stroke-linejoin:miter;stroke-opacity:1"
       d="m 108.5859,33.477269 0.15054,1.139671 6.06015,-0.267775 1.30299,0.611359 -0.41151,-1.810331 z"
       id="path5327"
       inkscape:connector-curvature="0" />
    <path
       style="fill:#d3bc5f;stroke:#000000;stroke-width:0.26458332px;stroke-linecap:butt;stroke-linejoin:miter;stroke-opacity:1"
       d="m 91.289535,82.58942 5.188003,-4.75569 -1.377636,-10.715669 -4.197201,-25.703846 5.353912,-11.160283 15.491447,-1.931803 10.58269,8.119902 0.0239,6.011949 -5.31398,27.53459 3.47409,15.58686 9.42779,5.38872 7.5856,-15.49564 -6.53183,-29.222633 -2.7644,-14.033278 -11.73741,-17.768815 -5.03113,-4.7258549 -14.252366,0.5021129 -6.066616,9.935305 -2.906387,6.546952 -3.165535,8.409411 -8.607496,27.730323 -2.728556,18.143507 14.152063,3.95678 z"
       id="path5331"
       inkscape:connector-curvature="0"
       sodipodi:nodetypes="cccccccccccccccccccccccc" />
    <path
       style="fill:#806600;fill-opacity:1;stroke:#766551;stroke-width:0.13363476;stroke-opacity:1"
       d="m 125.2093,88.029906 -4.54358,-2.597195 -1.71342,-7.730069 -1.71342,-7.730072 2.68014,-13.893692 2.68014,-13.893694 -0.0981,-2.967392 -0.0981,-2.967389 -5.29958,-4.067318 -5.29957,-4.067318 -7.7754,0.973183 c -4.276467,0.535249 -7.827033,1.024832 -7.890149,1.087961 -0.06311,0.06313 -1.311285,2.611969 -2.773714,5.664092 l -2.65896,5.549312 2.104904,12.892286 c 1.157692,7.090756 2.413103,15.267643 2.789795,18.170858 l 0.684901,5.278572 -2.442747,2.369908 c -2.075688,2.013794 -2.708169,2.540029 -4.209114,3.502056 l -1.766368,1.13215 -6.906707,-1.929799 c -3.798692,-1.061392 -6.928493,-1.951588 -6.955121,-1.978213 -0.02662,-0.02662 0.55739,-4.071668 1.297808,-8.988986 l 1.346216,-8.940572 4.336663,-13.964833 c 4.704398,-15.149004 6.211314,-19.4564 8.9804,-25.669782 1.18954,-2.669135 1.689259,-3.582125 4.315497,-7.884451 1.633593,-2.67617 2.989631,-4.889003 3.013414,-4.917408 0.02379,-0.02841 3.206322,-0.164079 7.072302,-0.301496 l 7.02905,-0.2498482 2.45687,2.3060152 2.45686,2.306019 5.87322,8.886711 5.87321,8.886711 1.28429,6.548104 c 0.70635,3.601455 2.79195,13.313362 4.63466,21.582012 l 3.35037,15.033913 -3.71353,7.583771 c -2.04244,4.171077 -3.74639,7.583619 -3.78655,7.583432 -0.0401,-1.35e-4 -2.11762,-1.16908 -4.61659,-2.597539 z"
       id="path5418"
       inkscape:connector-curvature="0" />
    <path
       style="fill:#806600;fill-opacity:1;stroke:#766551;stroke-width:0.13363476;stroke-opacity:1"
       d="m 125.28331,87.959185 c -2.44943,-1.394232 -4.4723,-2.553771 -4.49529,-2.576753 -0.0838,-0.08377 -3.39635,-15.13663 -3.39635,-15.433505 0,-0.168233 1.19478,-6.513965 2.65507,-14.101628 l 2.65507,-13.795748 -0.11032,-2.927588 c -0.0607,-1.610169 -0.15798,-2.96895 -0.21623,-3.019512 -0.0583,-0.05056 -2.4351,-1.875232 -5.28188,-4.05483 -3.47492,-2.66053 -5.28153,-3.962902 -5.49722,-3.962902 -0.8309,0 -15.422408,1.929963 -15.549062,2.056614 -0.09517,0.09517 -5.100817,10.513388 -5.250465,10.927754 -0.14074,0.389697 -0.02352,1.28845 0.929626,7.127664 2.238703,13.714822 3.696031,23.278943 4.292749,28.172396 l 0.159964,1.31181 -0.45193,0.474151 c -0.957855,1.004959 -4.277574,4.055714 -4.953719,4.552371 -0.390483,0.286824 -1.203852,0.837083 -1.807488,1.222804 l -1.097521,0.701304 -3.913782,-1.086874 c -6.665286,-1.85098 -9.655869,-2.709899 -9.763686,-2.804215 -0.08384,-0.07334 1.934289,-14.187885 2.45583,-17.17575 0.135507,-0.776303 4.048512,-13.520415 6.872825,-22.383824 4.087588,-12.827881 6.296575,-18.21212 9.978374,-24.321526 3.593891,-5.963536 3.743365,-6.188456 4.182663,-6.293816 0.220498,-0.05288 3.390422,-0.201398 7.044272,-0.33003 l 6.64337,-0.233876 1.68961,1.591381 c 0.92928,0.875263 1.99591,1.861995 2.37028,2.192743 0.63009,0.556664 4.14343,5.736357 11.16143,16.455238 l 1.36807,2.089505 1.12229,5.594495 c 1.44405,7.198363 2.03223,9.936875 5.36914,24.99813 l 2.75939,12.454625 -0.27613,0.64158 c -0.4056,0.94238 -7.08509,14.47278 -7.14471,14.47278 -0.0279,0 -2.05482,-1.140738 -4.50424,-2.534968 z"
       id="path5420"
       inkscape:connector-curvature="0" />
    <path
       style="fill:#806600;fill-opacity:1;stroke:#766551;stroke-width:0.13363476;stroke-opacity:1"
       d="m 129.35198,90.171208 c -0.147,-0.09592 -2.10141,-1.214679 -4.34313,-2.486118 -2.24173,-1.271442 -4.09201,-2.323277 -4.11175,-2.337411 -0.0587,-0.04203 -1.27349,-5.406845 -2.37316,-10.480445 -0.81506,-3.760517 -1.00922,-4.865388 -0.94287,-5.365559 0.1111,-0.837528 1.17455,-6.461911 3.37095,-17.828421 l 1.8076,-9.354434 -0.0803,-2.662666 c -0.0441,-1.464466 -0.11471,-2.877656 -0.15683,-3.140419 -0.082,-0.511387 -0.39027,-0.764958 -7.06204,-5.808035 -3.26265,-2.466184 -3.70693,-2.741261 -4.31711,-2.67293 -3.9565,0.443072 -14.588739,1.876105 -14.951031,2.015131 -0.202776,0.07781 -2.701623,5.036081 -4.792329,9.50905 -0.932349,1.994723 -0.954886,1.253938 0.268944,8.840251 2.621854,16.252391 4.34114,27.723345 4.34114,28.963762 0,0.325046 -0.241165,0.627872 -1.369758,1.719985 -2.340242,2.264603 -3.798769,3.50275 -5.263068,4.467836 -0.77592,0.511392 -1.480196,0.929704 -1.565055,0.929585 -0.161436,-2.65e-4 -3.789987,-1.00139 -9.932451,-2.740483 l -3.630959,-1.02802 0.06007,-0.420838 c 0.03304,-0.231463 0.361828,-2.585723 0.730649,-5.231691 1.372309,-9.845162 1.647584,-11.406217 2.536322,-14.383221 2.061134,-6.904172 6.221564,-20.177006 7.764823,-24.771765 3.352448,-9.981266 5.059809,-13.776992 9.437354,-20.980659 1.898107,-3.123518 2.506956,-4.033605 2.805088,-4.192961 0.12708,-0.06793 2.846951,-0.219591 6.044161,-0.337029 3.19722,-0.11744 6.23041,-0.236497 6.74043,-0.26457 l 0.92731,-0.05104 2.05455,1.888262 c 1.37723,1.265759 2.36552,2.306786 2.99782,3.157791 1.00788,1.356466 5.90261,8.64837 9.41882,14.031651 l 2.13853,3.274052 0.90032,4.543581 c 1.24498,6.282901 2.60138,12.61283 5.64122,26.326046 1.62845,7.34617 2.58263,11.917109 2.54234,12.178835 -0.0686,0.445418 -7.09702,14.796611 -7.26837,14.84109 -0.0555,0.01442 -0.22128,-0.05227 -0.36827,-0.148193 z"
       id="path5422"
       inkscape:connector-curvature="0" />
    <path
       style="fill:#806600;fill-opacity:1;stroke:#766551;stroke-width:0.13363476;stroke-opacity:1"
       d="m 125.41627,87.816691 c -2.30739,-1.314193 -4.27125,-2.467136 -4.36413,-2.562095 -0.17446,-0.178356 -2.81601,-11.858231 -3.20538,-14.172896 -0.2125,-1.263261 -0.21034,-1.357161 0.0676,-2.939965 0.29449,-1.677202 2.37752,-12.593902 4.03195,-21.130604 l 0.92943,-4.795755 -0.12743,-2.95506 -0.12743,-2.95506 -0.7788,-0.734991 c -0.95595,-0.902187 -9.21856,-7.136527 -9.87007,-7.447208 -0.44989,-0.214538 -0.6198,-0.20573 -3.90639,0.202483 -6.12977,0.761354 -11.446439,1.518179 -11.782081,1.67717 -0.381572,0.180747 -1.271389,1.841074 -3.84324,7.171171 l -1.70874,3.541321 0.01775,1.403167 c 0.01357,1.073343 0.336783,3.381923 1.374984,9.821426 2.24291,13.911741 3.751855,24.063184 3.752495,25.244943 2.65e-4,0.518107 -0.07277,0.618702 -1.369756,1.886299 -0.753528,0.736455 -1.910408,1.809912 -2.570842,2.38546 -1.336858,1.165037 -3.834752,2.890329 -4.185155,2.890687 -0.307113,2.64e-4 -13.162862,-3.604678 -13.290243,-3.726831 -0.107664,-0.103246 1.547116,-12.046551 2.103816,-15.184197 0.417308,-2.352021 0.629626,-3.171499 1.955834,-7.548885 3.615364,-11.933171 7.711207,-24.574727 9.373896,-28.931928 2.083769,-5.460669 4.083595,-9.379677 7.96004,-15.599076 1.729079,-2.774149 1.423988,-2.533827 3.374628,-2.65819 0.912334,-0.05817 3.995544,-0.199178 6.851584,-0.313362 l 5.19279,-0.207607 1.15486,1.057663 c 1.99222,1.824549 3.54648,3.507063 4.51876,4.891636 0.95256,1.356484 7.76877,11.570038 9.77209,14.6427 l 1.09541,1.680128 1.12815,5.602967 c 1.34515,6.680703 2.09838,10.208742 4.81962,22.574581 1.1322,5.144939 2.30898,10.587966 2.61507,12.095614 l 0.55651,2.741179 -1.33583,2.804663 c -1.85274,3.889949 -5.78331,11.812336 -5.89465,11.881146 -0.0505,0.03122 -1.97969,-1.018498 -4.28708,-2.332694 z"
       id="path5424"
       inkscape:connector-curvature="0" />
    <path
       style="fill:#74624f;fill-opacity:1;stroke:#766551;stroke-width:0.13363476;stroke-opacity:1"
       d="m 95.420504,68.077545 c -0.04321,-0.04322 -0.08018,-0.233929 -0.08215,-0.423802 -0.0019,-0.189873 -0.953743,-6.148311 -2.115055,-13.240978 l -2.111478,-12.895754 0.23138,-0.534538 c 0.127257,-0.293997 0.652275,-1.406506 1.166702,-2.472243 0.928634,-1.923849 0.936482,-1.934837 1.097531,-1.5368 0.126188,0.31187 0.128117,0.911365 0.0087,2.699438 -0.117168,1.754296 -0.115739,2.868435 0.006,4.705466 0.123952,1.869821 0.123621,3.26045 -0.0016,6.231752 l -0.161044,3.82482 1.788322,2.503201 1.788324,2.503202 0.09031,1.597972 c 0.11221,1.985532 0.402032,3.955323 0.720953,4.899994 l 0.243019,0.719849 -0.534106,0.257881 c -0.293759,0.141835 -0.876842,0.478658 -1.295741,0.748496 -0.418897,0.269841 -0.796991,0.455258 -0.840209,0.412044 z"
       id="path5430"
       inkscape:connector-curvature="0" />
    <path
       style="fill:#74624f;fill-opacity:1;stroke:#766551;stroke-width:0.13363476;stroke-opacity:1"
       d="m 116.62872,72.617006 c -1.62049,-2.001994 -4.25178,-4.337918 -5.82918,-5.17485 -0.33032,-0.17526 -0.48064,-0.336275 -0.43664,-0.467723 0.45717,-1.36589 0.6519,-1.696029 1.69721,-2.877386 1.5339,-1.733542 3.88227,-5.792031 4.79172,-8.281117 1.36402,-3.733218 2.83041,-8.40191 3.40561,-10.842818 0.58054,-2.463567 0.69801,-3.329575 1.08068,-7.966943 l 0.0855,-1.036338 0.38204,0.301347 0.38205,0.301347 0.007,2.819794 0.007,2.819795 -2.67963,13.88038 -2.67963,13.880383 0.41139,1.860364 c 0.22627,1.023202 0.39077,1.880992 0.36556,1.906202 -0.0252,0.02521 -0.47138,-0.479886 -0.99148,-1.122437 z"
       id="path5432"
       inkscape:connector-curvature="0" />
    <path
       style="fill:#74624f;fill-opacity:1;stroke:#766551;stroke-width:0.13363476;stroke-opacity:1"
       d="m 98.031005,66.148378 c -0.418068,-1.287275 -0.906703,-5.061646 -0.792684,-6.122951 l 0.05025,-0.467722 1.799604,1.809437 c 0.989775,0.995191 2.238265,2.299052 2.774415,2.897471 l 0.97483,1.088038 -0.64074,0.08865 c -1.16613,0.161351 -2.394615,0.504918 -3.801169,1.063062 -0.165751,0.06577 -0.256225,-0.0226 -0.364503,-0.355986 z"
       id="path5434"
       inkscape:connector-curvature="0" />
    <path
       style="fill:#74624f;fill-opacity:1;stroke:#766551;stroke-width:0.13363476;stroke-opacity:1"
       d="m 116.38941,72.370205 c -1.4976,-1.777153 -4.18822,-4.172688 -5.35513,-4.767818 -0.75488,-0.384992 -0.78237,-0.507862 -0.33458,-1.495451 0.22219,-0.490009 0.63863,-1.171805 0.92544,-1.515105 1.49114,-1.784818 2.749,-3.701198 3.82324,-5.824789 0.73807,-1.459042 1.44875,-3.03675 1.49227,-3.312858 0.009,-0.05828 0.0317,-0.136044 0.0501,-0.172792 0.0184,-0.03675 0.0419,-0.111918 0.0522,-0.167044 0.0103,-0.05512 0.0559,-0.160362 0.10122,-0.23386 0.0454,-0.0735 0.12438,-0.329076 0.17561,-0.567947 0.0512,-0.238874 0.14662,-0.434313 0.21198,-0.434313 0.0654,0 0.0842,-0.0902 0.0419,-0.200454 -0.0423,-0.110247 -0.007,-0.200451 0.0789,-0.200451 0.0857,0 0.11866,-0.06014 0.0732,-0.133636 -0.0454,-0.0735 -0.0349,-0.208804 0.0235,-0.300677 0.0583,-0.09187 0.1145,-0.212146 0.12482,-0.267269 0.0103,-0.05513 0.0307,-0.115261 0.0454,-0.133636 0.0147,-0.01836 0.054,-0.183748 0.0874,-0.367496 0.0334,-0.183748 0.11577,-0.353004 0.18301,-0.376129 0.0673,-0.02312 0.0891,-0.12836 0.0487,-0.23386 -0.0405,-0.1055 -0.009,-0.19182 0.0701,-0.19182 0.0791,0 0.10912,-0.0902 0.0668,-0.200451 -0.0423,-0.110249 -0.0122,-0.200451 0.0668,-0.200451 0.0791,0 0.10913,-0.0902 0.0668,-0.200453 -0.0423,-0.11025 -0.0123,-0.200451 0.0668,-0.200451 0.079,0 0.10912,-0.0902 0.0668,-0.200454 -0.0423,-0.110249 -0.007,-0.200451 0.0789,-0.200451 0.0857,0 0.12569,-0.04876 0.0889,-0.108347 -0.0541,-0.08749 0.64105,-2.560786 0.94606,-3.366156 0.0417,-0.110249 0.0928,-0.32517 0.11344,-0.477599 0.0206,-0.152432 0.12323,-0.483177 0.22798,-0.734992 0.10475,-0.251814 0.18017,-0.593151 0.16759,-0.758523 -0.0126,-0.165373 0.0238,-0.300678 0.0808,-0.300678 0.057,0 0.0805,-0.120272 0.0522,-0.267269 -0.0283,-0.147 0.003,-0.267271 0.0703,-0.267271 0.067,0 0.0883,-0.08732 0.0473,-0.194051 -0.041,-0.10673 -0.03,-0.266076 0.0244,-0.3541 0.0544,-0.08802 0.11801,-0.34648 0.14135,-0.574347 0.0233,-0.227867 0.10561,-0.83525 0.18285,-1.349745 0.14593,-0.972201 0.22369,-1.712677 0.32274,-3.073598 0.0321,-0.440995 0.0684,-0.80181 0.0808,-0.80181 0.0123,0 0.0486,-0.357214 0.0806,-0.793808 0.032,-0.436594 0.084,-0.8196 0.11549,-0.851125 0.0315,-0.03153 0.15468,0.04004 0.27368,0.159041 0.11899,0.118999 0.27478,0.216363 0.34617,0.216363 0.081,0 0.12291,1.255596 0.11144,3.340868 -0.0101,1.837478 -0.0675,3.340869 -0.12759,3.340869 -0.0601,0 -0.0927,0.150339 -0.0725,0.334087 0.0202,0.183748 -0.01,0.334087 -0.0668,0.334087 -0.0569,0 -0.087,0.150339 -0.0668,0.334087 0.0202,0.183747 -0.005,0.334086 -0.0563,0.334086 -0.0511,0 -0.0977,0.07517 -0.10341,0.167045 -0.0135,0.217149 -0.14894,1.011044 -0.24498,1.436574 -0.0415,0.183748 -0.0862,0.529526 -0.0993,0.7684 -0.0131,0.238871 -0.0637,0.434311 -0.11238,0.434311 -0.0486,0 -0.072,0.150339 -0.0518,0.334087 0.0202,0.183747 -0.01,0.334089 -0.0668,0.334089 -0.0569,0 -0.087,0.150339 -0.0668,0.334087 0.0202,0.183748 -0.002,0.334086 -0.0499,0.334086 -0.0476,0 -0.0947,0.105236 -0.10463,0.23386 -0.01,0.128625 -0.0616,0.504471 -0.11479,0.835218 -0.0532,0.330746 -0.10095,0.706594 -0.10607,0.835216 -0.005,0.128625 -0.0513,0.233863 -0.10254,0.233863 -0.0513,0 -0.0767,0.150338 -0.0566,0.334086 0.0202,0.183748 -0.01,0.334087 -0.0668,0.334087 -0.0569,0 -0.087,0.150339 -0.0668,0.334087 0.0202,0.183748 -0.005,0.334086 -0.0563,0.334086 -0.0511,0 -0.0977,0.07517 -0.10341,0.167045 -0.0106,0.170008 -0.0819,0.597368 -0.23977,1.436571 -0.0484,0.257249 -0.0969,0.633095 -0.10791,0.835218 -0.011,0.202123 -0.0599,0.367496 -0.10869,0.367496 -0.0488,0 -0.0722,0.150339 -0.0521,0.334087 0.0202,0.183748 -0.01,0.334086 -0.0668,0.334086 -0.0569,0 -0.087,0.150339 -0.0668,0.334087 0.0202,0.183748 -0.005,0.334087 -0.0563,0.334087 -0.0511,0 -0.0977,0.07517 -0.10341,0.167045 -0.006,0.09187 -0.0504,0.377518 -0.0991,0.634764 -0.0488,0.257247 -0.0992,0.663162 -0.11207,0.902036 -0.0129,0.238871 -0.0632,0.434311 -0.11182,0.434311 -0.0487,0 -0.072,0.150342 -0.0518,0.334089 0.0202,0.183748 -0.01,0.334087 -0.0668,0.334087 -0.0569,0 -0.087,0.150339 -0.0668,0.334087 0.0202,0.183748 -0.005,0.334087 -0.0563,0.334087 -0.0511,0 -0.0977,0.07517 -0.10341,0.167042 -0.0106,0.17001 -0.0819,0.597371 -0.23977,1.436573 -0.0484,0.257247 -0.0969,0.633095 -0.10791,0.835218 -0.011,0.202124 -0.0599,0.367496 -0.10869,0.367496 -0.0488,0 -0.0722,0.150339 -0.0521,0.334087 0.0202,0.183748 -0.01,0.334087 -0.0668,0.334087 -0.0569,0 -0.087,0.150338 -0.0668,0.334086 0.0202,0.183748 -0.005,0.334087 -0.0563,0.334087 -0.0512,0 -0.0977,0.07517 -0.10342,0.167045 -0.006,0.09187 -0.0483,0.377518 -0.0947,0.634764 -0.0463,0.257247 -0.0961,0.663162 -0.11057,0.902034 -0.0145,0.238873 -0.0668,0.434313 -0.11629,0.434313 -0.0495,0 -0.0735,0.150339 -0.0533,0.334087 0.0202,0.183748 -0.01,0.334087 -0.0668,0.334087 -0.0569,0 -0.087,0.150338 -0.0668,0.334086 0.0202,0.183748 -0.005,0.334087 -0.0563,0.334087 -0.0511,0 -0.0962,0.07517 -0.10011,0.167045 -0.004,0.09187 -0.0489,0.377518 -0.1,0.634764 -0.20591,1.037122 -0.23585,1.298244 -0.22605,1.971114 0.0129,0.885188 0.0434,1.102487 0.15493,1.102487 0.049,0 0.0773,0.135305 0.0629,0.300678 -0.0144,0.165373 0.0331,0.415811 0.10562,0.556527 0.0725,0.140719 0.14488,0.441397 0.1609,0.668176 0.016,0.226777 0.0728,0.547627 0.12617,0.712999 0.17244,0.534218 -0.10008,0.308671 -1.19049,-0.985287 z"
       id="path5436"
       inkscape:connector-curvature="0" />
    <path
       style="fill:#e9c6af;fill-opacity:1;stroke:#766551;stroke-width:0.13363476;stroke-opacity:1"
       d="m 109.88649,66.933465 c -0.19799,-0.127717 -0.17058,-0.2061 0.25274,-0.722709 0.26115,-0.318702 0.49494,-0.55934 0.51953,-0.534752 0.0488,0.0488 -0.38803,1.250458 -0.48836,1.343429 -0.034,0.03151 -0.16177,-0.0072 -0.28391,-0.08597 z"
       id="path5438"
       inkscape:connector-curvature="0" />
    <path
       style="fill:none;stroke:#000000;stroke-width:0.26458332px;stroke-linecap:butt;stroke-linejoin:miter;stroke-opacity:1"
       d="m 82.319012,83.18438 -2.138156,23.78699 0.534541,19.51067 6.147199,6.94901 27.127154,2.68013 1.73554,-0.19475 8.81801,-3.00516 10.69508,-3.48927 1.06908,-17.90705 -3.17383,-27.12786 -3.19108,6.57706 -9.42779,-5.38872 -2.78254,-11.8123 -6.21401,-6.147204 -2.00452,2.004521 -4.71646,0.402448 -6.776131,-0.803351 -1.347695,-1.711407 -1.253021,0.569407 1.057153,9.756186 c 0,0 -1.082692,1.59357 -4.386194,4.0207 l -4.202856,3.08789 z"
       id="path5604"
       inkscape:connector-curvature="0"
       sodipodi:nodetypes="ccccccccccccccccccccscc" />
    <path
       style="fill:#784421;fill-opacity:1;stroke:#766551;stroke-width:0.13363476;stroke-opacity:1"
       d="m 100.1482,134.66711 -13.169058,-1.42087 -2.653649,-3.00678 c -1.459508,-1.65373 -2.823747,-3.18888 -3.031646,-3.41145 l -0.377999,-0.40468 -0.274807,-9.68475 -0.27481,-9.68475 1.015675,-11.425771 c 0.558623,-6.284177 1.041072,-11.552944 1.072113,-11.708373 0.05506,-0.275715 0.122409,-0.263991 2.764533,0.481237 l 2.708095,0.763839 1.269529,-0.875535 c 2.984807,-2.058483 6.443604,-4.955315 7.23124,-6.05635 0.252679,-0.353221 0.250602,-0.399473 -0.210114,-4.677217 -0.255926,-2.376257 -0.497596,-4.544512 -0.537046,-4.818343 -0.06745,-0.468227 -0.04176,-0.513162 0.431522,-0.754612 l 0.503248,-0.256739 0.650968,0.85484 c 0.358032,0.470162 0.726816,0.854839 0.81952,0.854839 0.0927,0 1.645537,0.178057 3.450736,0.395682 l 3.28219,0.395682 2.37852,-0.208037 2.37852,-0.208036 0.96439,-0.948272 0.9644,-0.948275 3.04465,3.028699 3.04464,3.028698 0.84899,3.645268 c 0.46693,2.004896 1.08732,4.646049 1.37863,5.869228 l 0.52965,2.223963 4.82015,2.758028 c 2.65108,1.516917 4.83943,2.738755 4.86298,2.715196 0.0236,-0.02355 0.70072,-1.383988 1.5048,-3.023179 1.42238,-2.899638 1.46416,-2.966442 1.54267,-2.466914 0.0444,0.282387 0.74523,6.210916 1.55745,13.174509 l 1.47675,12.661075 -0.53076,8.83238 c -0.29191,4.85781 -0.5613,8.86292 -0.59862,8.90024 -0.0373,0.0373 -2.31223,0.93403 -5.05532,1.99268 -4.36482,1.68452 -5.63405,2.10835 -10.16687,3.39497 -3.59533,1.02052 -5.37322,1.46536 -5.81311,1.45446 -0.34854,-0.009 -6.55977,-0.6551 -13.80275,-1.43658 z"
       id="path5608"
       inkscape:connector-curvature="0" />
    <path
       style="fill:#817364;fill-opacity:1;stroke:#766551;stroke-width:1.634;stroke-opacity:1;stroke-miterlimit:4;stroke-dasharray:none"
       d="m 112.58226,135.88997 c -0.25725,-0.0292 -3.26403,-0.3472 -6.68174,-0.70676 -3.41771,-0.35956 -9.068734,-0.96224 -12.557834,-1.33927 l -6.343822,-0.68552 -0.422177,-0.49063 c -0.232198,-0.26984 -1.567743,-1.78354 -2.967879,-3.36377 l -2.545701,-2.87315 -0.07387,-0.93544 c -0.04063,-0.5145 -0.17613,-4.84063 -0.301117,-9.61364 -0.187094,-7.14475 -0.198313,-9.03381 -0.06349,-10.69078 0.09007,-1.10692 0.552119,-6.307809 1.026782,-11.557526 0.474662,-5.249717 0.863023,-9.594516 0.863023,-9.655111 0,-0.208076 0.508704,-0.108826 2.859998,0.557998 1.295828,0.367496 2.430256,0.667367 2.520947,0.666377 0.4826,-0.0053 5.941753,-4.238646 7.701166,-5.97199 l 1.121799,-1.105177 -0.09227,-1.237959 c -0.05075,-0.680879 -0.269912,-2.821295 -0.487031,-4.756478 -0.21712,-1.935184 -0.394764,-3.590983 -0.394764,-3.679553 0,-0.08857 0.182938,-0.269097 0.406524,-0.401174 l 0.406527,-0.240141 0.294278,0.378372 c 0.161851,0.208103 0.485309,0.588844 0.718793,0.846093 l 0.424522,0.46772 3.411916,0.403809 3.41193,0.40381 2.41432,-0.209476 2.41431,-0.209476 0.93451,-0.927343 0.9345,-0.927344 3.00226,3.004802 3.00226,3.004801 1.37016,5.856806 1.37016,5.856806 4.41245,2.510531 c 4.39764,2.502101 5.20491,2.947924 5.33797,2.947924 0.0386,0 0.70835,-1.26759 1.48835,-2.816865 0.78001,-1.549276 1.43698,-2.797091 1.45993,-2.772923 0.023,0.02416 0.72077,5.839258 1.5507,12.922419 l 1.50896,12.878468 -0.16316,2.89043 c -0.30226,5.35425 -0.81856,13.57581 -0.8961,14.26928 -0.0544,0.48628 -0.1432,0.70757 -0.30287,0.75456 -0.12427,0.0366 -1.72933,0.65021 -3.5668,1.36364 -4.58489,1.78016 -6.20891,2.3463 -9.62171,3.35413 -5.99341,1.76993 -7.20525,2.0193 -8.88671,1.82872 z"
       id="path5610"
       inkscape:connector-curvature="0" />
    <path
       style="fill:none;stroke:#000000;stroke-width:0.26458332px;stroke-linecap:butt;stroke-linejoin:miter;stroke-opacity:1"
       d="m 81.063107,126.43087 -0.34771,0.0512 -0.534541,5.34539 1.069078,2.40542 2.405428,4.27632 18.174328,4.00904 18.4416,-0.80181 14.96709,-5.61266 v -6.68174 l -20.84703,6.94901 -27.392485,-3.21259 z"
       id="path5616"
       inkscape:connector-curvature="0" />
    <path
       style="fill:none;stroke:#000000;stroke-width:0.26458332px;stroke-linecap:butt;stroke-linejoin:miter;stroke-opacity:1"
       d="m 83.655362,138.5092 -6.68174,16.57068 -1.870884,55.85933 -4.829847,49.37866 34.229499,7.81701 42.8201,-13.66221 14.23801,-11.78672 -26.32212,-106.58218 -14.96709,5.61266 -18.4416,0.80181 z"
       id="path5620"
       inkscape:connector-curvature="0"
       sodipodi:nodetypes="ccccccccccc" />
    <path
       style="fill:none;stroke:#000000;stroke-width:0.26458332px;stroke-linecap:butt;stroke-linejoin:miter;stroke-opacity:1"
       d="m 87.536998,263.97052 1.731023,16.1915 -3.207234,11.75986 6.147199,4.2763 6.949006,-4.54358 2.672698,-10.4235 2.6727,-13.09622 z"
       id="path5622"
       inkscape:connector-curvature="0"
       sodipodi:nodetypes="cccccccc" />
    <path
       style="fill:none;stroke:#000000;stroke-width:0.26458332px;stroke-linecap:butt;stroke-linejoin:miter;stroke-opacity:1"
       d="m 127.47692,260.69029 3.30172,11.34946 6.41447,5.87994 10.69078,-2.40544 -9.74862,-18.12846 z"
       id="path5624"
       inkscape:connector-curvature="0"
       sodipodi:nodetypes="cccccc" />
    <path
       style="fill:none;stroke:#000000;stroke-width:0.26458332px;stroke-linecap:butt;stroke-linejoin:miter;stroke-opacity:1"
       d="m 82.31901,83.18438 -9.354428,83.38809 2.138156,18.70886 0.534537,0.26727 1.336347,-30.46872 6.68174,-16.57068 -3.474508,-6.68174 0.534543,-5.34542 z"
       id="path5626"
       inkscape:connector-curvature="0" />
    <path
       style="fill:none;stroke:#000000;stroke-width:0.26458332px;stroke-linecap:butt;stroke-linejoin:miter;stroke-opacity:1"
       d="m 148.09696,188.08373 -0.83145,-37.28016 -14.13188,-66.41648 2.982,27.14187 -0.87725,17.89304 v 6.68177 z"
       id="path5628"
       inkscape:connector-curvature="0"
       sodipodi:nodetypes="ccccccc" />
    <path
       style="fill:none;stroke:#000000;stroke-width:0.26458332px;stroke-linecap:butt;stroke-linejoin:miter;stroke-opacity:1"
       d="m 124.81487,133.43105 1.87088,8.01808 8.95353,0.53454 3.20724,-4.81085 -3.60814,-7.75079 z"
       id="path5638"
       inkscape:connector-curvature="0" />
    <path
       style="fill:#817364;fill-opacity:1;stroke:#766551;stroke-width:1.42866144;stroke-opacity:1;stroke-miterlimit:4;stroke-dasharray:none"
       d="m 330.84853,997.68387 -63.57143,-14.6668 0.36319,-5.54744 c 0.19976,-3.0511 4.20148,-45.08316 8.89273,-93.40459 8.52807,-87.84213 8.53013,-87.87508 12.06272,-192.85714 l 3.53319,-105 12.16944,-29.83345 c 6.69319,-16.4084 12.49287,-30.15688 12.88817,-30.55218 0.3953,-0.3953 15.87277,2.61878 34.39438,6.69797 l 33.67565,7.41669 35.24713,-1.66112 c 32.97878,-1.55422 35.90899,-1.91598 45.53145,-5.62126 9.75643,-3.75686 10.32031,-3.82245 10.98574,-1.27784 0.53237,2.03578 -5.46006,8.45052 -24.86173,26.61388 l -25.56317,23.93159 -0.0166,7.27572 c -0.009,4.00164 -0.43229,15.00684 -0.94036,24.45601 l -0.92378,17.1803 26.99521,-0.55942 c 14.84736,-0.30768 34.11929,-0.92312 42.82651,-1.36765 l 15.8313,-0.80823 11.6687,-9.18527 c 6.41776,-5.05189 11.66868,-8.95856 11.66868,-8.68147 0,0.71547 74.2067,301.19173 75.08941,304.05049 0.52934,1.71435 -6.52446,8.36194 -25.76974,24.28571 l -26.49859,21.92524 -27.48197,8.81776 c -15.89887,5.10126 -31.62054,9.2341 -37.30111,9.80556 -7.48952,0.75343 -9.10136,0.75231 -9.58398,2.59779 -0.46522,1.77906 -12.53648,6.75239 -43.19161,16.53944 -22.93004,7.32074 -42.33384,13.48724 -43.11956,13.70344 -0.78571,0.2162 -30.03571,-6.207 -65,-14.27373 z"
       id="path5642"
       inkscape:connector-curvature="0"
       transform="scale(0.26458333)"
       sodipodi:nodetypes="cccsscssscssssccscssccscscscccccc" />
    <path
       style="fill:#2b0000;fill-opacity:1;stroke:#766551;stroke-width:1.42857146;stroke-opacity:1"
       d="m 427.99139,606.37031 v -22.07797 l 25.6389,-24.24598 25.63889,-24.24598 12.57539,0.62916 c 18.12823,0.90696 21.32736,1.60669 23.65629,5.17416 1.77421,2.71776 34.02641,61.3197 31.06195,58.42794 0,0 3.13067,32.07013 -6.47427,33.22682 l -11.11715,14.98318 -46.02571,-0.0752 -45.31143,-20.78954 z"
       id="path5648"
       inkscape:connector-curvature="0"
       transform="scale(0.26458333)"
       sodipodi:nodetypes="ccccscsscccc" />
    <path
       style="fill:#008080;fill-opacity:1;stroke:#766551;stroke-width:1.42857146;stroke-opacity:1"
       d=""
       id="path5658"
       inkscape:connector-curvature="0"
       transform="scale(0.26458333)" />
    <path
       style="fill:none;stroke:#000000;stroke-width:0.26458332px;stroke-linecap:butt;stroke-linejoin:miter;stroke-opacity:1"
       d="m 126.32673,139.254 0.0473,0.3071"
       id="path5718"
       inkscape:connector-curvature="0" />
    <path
       style="fill:none;stroke:#000000;stroke-width:0.26458332px;stroke-linecap:butt;stroke-linejoin:miter;stroke-opacity:1"
       d="m 126.68575,141.44913 8.95353,0.53454 3.20724,-4.81085"
       id="path5720"
       inkscape:connector-curvature="0" />
    <path
       style="fill:none;stroke:#000000;stroke-width:0.26458332px;stroke-linecap:butt;stroke-linejoin:miter;stroke-opacity:1"
       d="m 138.84652,137.17282 -3.60814,-7.75079 -10.42351,4.00902 1.87088,8.01808 8.95353,0.53454 z"
       id="path5724"
       inkscape:connector-curvature="0" />
    <path
       style="fill:none;stroke:#000000;stroke-width:0.26458332px;stroke-linecap:butt;stroke-linejoin:miter;stroke-opacity:1"
       d="m 124.81487,133.43105 1.87088,8.01808 8.95353,0.53454 0.95186,-1.53669 -1.35276,-4.34321 -8.91165,3.15023 0.35902,2.19513 8.95353,0.53454"
       id="path5726"
       inkscape:connector-curvature="0" />
    <path
       style="fill:none;stroke:#000000;stroke-width:0.26458332px;stroke-linecap:butt;stroke-linejoin:miter;stroke-opacity:1"
       d="m 135.23838,129.42203 -10.42351,4.00902 1.87088,8.01808 8.95353,0.53454 3.20724,-4.81085 z"
       id="path5728"
       inkscape:connector-curvature="0" />
    <path
       id="path5732"
       transform="scale(0.26458333)"
       style="fill:#782121;stroke:#000000;stroke-width:0.86929135;stroke-linecap:butt;stroke-linejoin:miter;stroke-miterlimit:4;stroke-dasharray:none;stroke-opacity:1;fill-opacity:1"
       d="m 511.13672,489.1543 -40.42188,13.1875 8.55469,33.45898 32.33789,3.0586 13.16602,-20.41016 z" />
    <path
       style="fill:#e9c6af;fill-opacity:1;stroke:#000000;stroke-width:0.33399999;stroke-miterlimit:4;stroke-dasharray:none;stroke-opacity:1"
       d="m 113.48948,155.02262 c -0.25006,-0.15166 -0.45714,-0.28271 -0.46018,-0.29122 -0.006,-0.0169 0.86738,-6.00571 0.87969,-6.03182 0.004,-0.009 1.40906,0.64499 3.12204,1.45289 l 3.11447,1.4689 -0.85009,2.81825 c -0.46754,1.55004 -3.11039,1.872 -3.12226,1.91309 v 0 0 c -2.18051,-1.03173 -2.23893,-1.06038 -2.68368,-1.33018 z"
       id="path5750"
       inkscape:connector-curvature="0"
       sodipodi:nodetypes="ccssccccccc" />
    <path
       style="fill:#817364;stroke:#000000;stroke-width:0.26458332px;stroke-linecap:butt;stroke-linejoin:miter;stroke-opacity:1;fill-opacity:1"
       d="m 113.23938,160.43547 2.55134,5.558 11.98865,5.50056 12.17764,0.0199 2.94141,-3.9643 18.66208,75.13632 -14.23801,11.78672 -42.8201,13.66221 -34.229499,-7.81701 4.829847,-49.37866 0.267268,-18.4416 1.603616,-37.41773 6.68174,-16.57068 18.174328,4.00904 18.4416,-0.80181 6.05544,-2.46243 0.48,2.50995 -13.75172,12.51412 z"
       id="path7238"
       inkscape:connector-curvature="0" />
    <path
       style="fill:#bd8a66;fill-opacity:1;stroke:none;stroke-width:0.13498312;stroke-miterlimit:4;stroke-dasharray:none;stroke-opacity:1"
       d="m 550.05176,668.92722 -8.61857,-34.87516 1.53304,-1.34943 c 1.8442,-1.62334 2.87724,-3.87465 3.9059,-8.51216 0.67502,-3.04323 0.7542,-4.52392 0.75469,-14.11419 l 7.1e-4,-10.71429 -2.93543,-5.78659 c -3.7313,-7.35511 -6.45103,-12.45753 -16.52354,-30.99912 l -8.14859,-13.48477 -6.8708,-8.70377 c -2.61056,-3.307 3.33784,-7.88084 3.46877,-8.10968 0.13093,-0.22883 2.1409,-3.32142 4.4666,-6.8724 2.3257,-3.55099 4.22855,-6.68737 4.22855,-6.96974 0,-0.28237 -3.03852,-7.03596 -6.75226,-15.00798 l -6.75225,-14.49457 1.92216,-31.92855 c 1.05718,-17.56069 1.92605,-33.08786 1.93082,-34.5048 0.007,-2.02246 -3.85791,-37.00582 -4.85436,-43.9416 l -0.21807,-1.51785 h 2.18341 c 1.20087,0 2.18341,0.0996 2.18341,0.22127 0,0.1217 4.73291,22.50117 10.51759,49.73214 l 10.51758,49.51087 0.39618,12.134 c 0.21789,6.6737 0.42694,12.15125 0.46455,12.17233 0.0376,0.0211 1.08751,0.41176 2.33312,0.86817 1.24561,0.4564 2.32932,1.00564 2.40826,1.22052 0.0789,0.21488 3.34651,15.49784 7.26128,33.96212 l 7.11777,33.57143 1.47164,66.56186 c 0.80941,36.60902 1.41647,66.61703 1.34903,66.68447 -0.0674,0.0674 -4.00097,-15.5712 -8.74119,-34.75253 z"
       id="path7258"
       inkscape:connector-curvature="0"
       transform="scale(0.26458333)"
       sodipodi:nodetypes="sccccccscsccsscscccssscccccscsss" />
    <path
       style="fill:#bd8a66;fill-opacity:1;stroke:none;stroke-width:0.26996624;stroke-miterlimit:4;stroke-dasharray:none;stroke-opacity:1"
       d="m 510.70487,375.41982 c -0.59652,-2.73745 -4.06332,-33.53035 -3.80417,-33.7895 0.13456,-0.13456 1.81448,7.21214 3.73316,16.326 1.91868,9.11385 3.6333,17.13314 3.81028,17.82064 0.24513,0.95225 -0.12018,1.25 -1.53364,1.25 -1.34417,0 -1.95191,-0.44283 -2.20563,-1.60714 z"
       id="path7260"
       inkscape:connector-curvature="0"
       transform="scale(0.26458333)" />
    <path
       style="fill:#bd8a66;fill-opacity:1;stroke:#000000;stroke-width:0.26996624;stroke-miterlimit:4;stroke-dasharray:none;stroke-opacity:1"
       d="m 284.43229,697.02696 c -0.28829,-1.76785 -2.1682,-17.51785 -4.17758,-35 l -3.65342,-31.78571 12.74901,-114.04704 c 7.01195,-62.72586 12.78776,-113.99372 12.83513,-113.92857 0.0474,0.0652 0.50291,16.9373 1.01231,37.49366 0.7518,30.33813 0.75494,39.41601 0.0167,48.21429 l -0.90948,10.83909 2.49509,5.35714 c 1.37229,2.94643 4.26606,8.52584 6.4306,12.39868 l 3.93552,7.04153 -12.47176,30.81561 -12.47175,30.81561 -2.43732,54.64286 c -1.34052,30.05357 -2.52542,55.92857 -2.63311,57.5 l -0.1958,2.85714 z"
       id="path7262"
       inkscape:connector-curvature="0"
       transform="scale(0.26458333)" />
    <path
       style="fill:#784421;fill-opacity:1;stroke:#000000;stroke-width:0.09544748;stroke-miterlimit:4;stroke-dasharray:none;stroke-opacity:1"
       d="m 352.14548,530.78051 c -18.12593,-4.00081 -33.54064,-7.39736 -34.25492,-7.5479 l -1.29868,-0.27371 -6.45058,-12.42523 -6.45057,-12.42524 0.93073,-9.28971 0.93073,-9.28971 11.07929,12.529 c 6.0936,6.89094 11.32114,12.62526 11.61675,12.74293 0.29561,0.11767 7.12871,0.85253 15.18468,1.63302 33.62167,3.25738 45.79303,4.53221 66.26866,6.94097 11.86318,1.39559 21.92215,2.53744 22.35327,2.53744 0.43112,0 5.21426,-1.48071 10.6292,-3.29046 5.41494,-1.80976 11.83408,-3.86206 14.26476,-4.56067 2.43068,-0.69862 6.44913,-1.89489 8.92988,-2.65837 2.48075,-0.76349 4.56261,-1.33601 4.62635,-1.27226 0.10844,0.10844 5.13698,19.57802 5.49349,21.26974 l 0.1634,0.77542 -10.93238,4.43035 -10.93239,4.43035 -33.58757,1.425 c -18.47316,0.78376 -34.04214,1.46286 -34.59772,1.50912 -0.65523,0.0546 -12.58953,-2.47172 -33.96638,-7.19008 z"
       id="path7272"
       inkscape:connector-curvature="0"
       transform="scale(0.26458333)" />
    <path
       style="fill:#784421;fill-opacity:1;stroke:#000000;stroke-width:0.53993249;stroke-miterlimit:4;stroke-dasharray:none;stroke-opacity:1"
       d="m 339.61084,1111.7476 c -5.00392,-3.5452 -9.99931,-6.9657 -11.10086,-7.6012 -1.65334,-0.9537 -0.94243,-4.9708 4.07408,-23.0208 l 6.0769,-21.8656 -3.08724,-28.4668 c -1.69797,-15.6568 -2.72691,-28.8272 -2.28652,-29.2676 0.63364,-0.6336 24.63206,4.4033 57.40436,12.0483 3.02946,0.7067 3.02409,0.7649 -2.52974,27.3838 -3.06111,14.6716 -7.57588,34.2766 -10.03282,43.5665 l -4.46715,16.8909 -12.47648,8.3892 -12.47648,8.3891 z"
       id="path7274"
       inkscape:connector-curvature="0"
       transform="scale(0.26458333)" />
    <path
       style="fill:#784421;fill-opacity:1;stroke:#000000;stroke-width:0.26996624;stroke-miterlimit:4;stroke-dasharray:none;stroke-opacity:1"
       d="m 509.5748,1041.0421 c -16.13556,-14.7598 -13.86071,-10.9893 -20.62462,-34.1844 -4.00038,-13.71836 -5.65979,-20.43447 -5.12291,-20.73388 1.29612,-0.72282 37.71307,-12.16227 37.95065,-11.92122 0.58277,0.59127 35.34345,65.6123 35.34345,66.1111 0,0.3166 -8.61917,2.5116 -19.15372,4.8777 l -19.15372,4.3021 z"
       id="path7276"
       inkscape:connector-curvature="0"
       transform="scale(0.26458333)" />
    <path
       style="fill:#784421;fill-opacity:1;stroke:#000000;stroke-width:0.19089496;stroke-miterlimit:4;stroke-dasharray:none;stroke-opacity:1"
       d="m 382.71644,262.40885 c -6.50548,-0.81731 -11.85763,-1.5424 -11.89367,-1.61134 -0.036,-0.0689 -1.02052,-1.29329 -2.18773,-2.7208 -1.16721,-1.42751 -2.12219,-2.80275 -2.12219,-3.05609 0,-0.25333 0.97583,-0.9347 2.16851,-1.51414 l 2.16851,-1.05355 1.63074,1.9424 c 2.45201,2.92062 4.09719,3.18696 11.86415,1.92066 4.60326,-0.7505 7.38881,-0.9555 9.60446,-0.70683 3.0907,0.34688 3.15401,0.3863 6.57652,4.0956 3.36191,3.64362 3.41678,3.74544 2.0203,3.74893 -0.78951,0.002 -2.91282,0.10205 -4.71847,0.22238 -1.95239,0.1301 -8.07696,-0.3835 -15.11113,-1.26722 z"
       id="path7278"
       inkscape:connector-curvature="0"
       transform="scale(0.26458333)" />
    <path
       style="fill:#a05a2c;fill-opacity:1;stroke:#000000;stroke-width:0.19089496;stroke-miterlimit:4;stroke-dasharray:none;stroke-opacity:1"
       d="m 407.16172,260.37021 c 1.38359,-1.50067 2.63366,-2.76542 2.77792,-2.81057 0.14427,-0.0451 0.88317,-0.2189 1.642,-0.38611 0.75883,-0.16721 2.16901,-0.99704 3.13373,-1.84407 l 1.75402,-1.54006 1.53823,1.13726 c 0.84603,0.6255 1.53823,1.2721 1.53823,1.4369 0,0.1648 -1.30779,1.59378 -2.9062,3.17551 l -2.90621,2.87589 -4.54367,0.34186 -4.54367,0.34187 z"
       id="path7280"
       inkscape:connector-curvature="0"
       transform="scale(0.26458333)" />
    <path
       style="fill:#784421;fill-opacity:1;stroke:#663434;stroke-width:0.53993249;stroke-miterlimit:4;stroke-dasharray:none;stroke-opacity:1"
       d="m 349.778,529.80606 -33.04189,-7.30932 -5.88668,-11.86951 c -5.79056,-11.67572 -7.70915,-22.49547 -4.79337,-27.03185 0.66336,-1.03205 4.85305,2.70124 11.38615,10.1458 l 10.3366,11.77868 16.80626,1.64072 c 9.24344,0.90239 32.87769,3.33857 52.52054,5.41373 l 35.71429,3.77302 18.57143,-5.77957 18.57143,-5.77957 2.5721,10.07652 c 1.41464,5.54209 2.0575,10.52289 1.42857,11.06844 -0.62894,0.54556 -5.3221,2.68684 -10.42924,4.75841 -8.56889,3.47574 -11.8036,3.87894 -41.9024,5.22304 -17.93918,0.80109 -34.01061,1.39899 -35.71429,1.32866 -1.70368,-0.0703 -17.96645,-3.41707 -36.1395,-7.4372 z"
       id="path7282"
       inkscape:connector-curvature="0"
       transform="scale(0.26458333)" />
    <path
       style="fill:#502d16;fill-opacity:1;stroke:#663434;stroke-width:0.53993249;stroke-miterlimit:4;stroke-dasharray:none;stroke-opacity:1"
       d="m 381.20127,536.69889 c -0.78572,-0.24567 -15.63515,-3.5025 -32.99874,-7.2374 l -31.57017,-6.79072 -5.92983,-11.95652 c -4.46145,-8.99577 -5.92442,-13.63166 -5.90796,-18.72125 0.0325,-10.05591 1.61397,-11.49813 6.35252,-5.79322 2.16667,2.60853 7.02848,8.00657 10.80403,11.99564 l 6.86464,7.25285 18.33561,1.73348 c 10.08459,0.95341 33.28842,3.37438 51.56408,5.37993 l 33.22847,3.64646 17.48582,-5.31757 c 9.6172,-2.92466 18.21069,-5.59442 19.09663,-5.9328 1.79677,-0.68625 7.05434,18.52167 5.6789,20.74718 -0.45963,0.74369 -5.0535,3.04067 -10.2086,5.1044 -8.33423,3.33642 -12.41217,3.90576 -36.79845,5.1376 -27.00894,1.36431 -43.19235,1.62887 -45.99695,0.75194 z"
       id="path7284"
       inkscape:connector-curvature="0"
       transform="scale(0.26458333)" />
    <path
       style="fill:none;stroke:#000000;stroke-width:0.25555179px;stroke-linecap:butt;stroke-linejoin:miter;stroke-opacity:1"
       d="m 101.46231,103.4897 c 0.60294,0.4526 1.4126,0.51094 2.06791,0.85919 0.30107,0.15998 0.54438,0.40257 0.84234,0.56749 0.30757,0.17024 0.65649,0.26896 0.96727,0.43411 0.51516,0.27376 1.11228,0.83082 1.68467,1.13499 0.20759,0.11032 0.46707,0.10928 0.68369,0.2035 0.20112,0.0875 0.3725,0.22459 0.55875,0.33688 0.18625,0.11229 0.39164,0.20099 0.55875,0.33688 0.1671,0.13589 0.28072,0.32071 0.43381,0.47026 0.20106,0.19645 0.61283,0.53827 0.85076,0.69185 0.1315,0.0849 0.27797,0.14772 0.41696,0.22158 0.1446,0.15676 0.2667,0.33438 0.43381,0.47027 0.0334,0.0272 0.0924,-0.0249 0.13336,-0.009 0.16253,0.0627 0.27207,0.26445 0.42539,0.34592 0.17433,0.0926 0.44426,0.15425 0.55875,0.33688 0.0448,0.0714 0.0112,0.1658 0.0169,0.2487"
       id="path7343"
       inkscape:connector-curvature="0" />
    <path
       style="fill:none;stroke:#000000;stroke-width:0.25555179px;stroke-linecap:butt;stroke-linejoin:miter;stroke-opacity:1"
       d="m 102.14968,109.66188 c 0.51066,-0.51617 0.87915,-0.69577 1.54138,-0.97891 0.1285,-0.055 0.28243,-0.0676 0.39167,-0.15147 0.19539,-0.15015 0.29491,-0.39482 0.49974,-0.53355 0.1493,-0.10103 0.35481,-0.0947 0.52503,-0.16051 0.36556,-0.14137 0.66766,-0.42834 1.03321,-0.56971 0.74278,-0.28725 0.29077,-0.0287 0.9167,-0.31197 0.09,-0.0407 0.1722,-0.095 0.2583,-0.14244 0.0833,-0.0889 0.14097,-0.20671 0.24988,-0.26677 0.15876,-0.0875 0.35481,-0.0946 0.52503,-0.16051 0.32873,-0.12712 0.43775,-0.4245 0.76648,-0.55163 0.17022,-0.0659 0.3548,-0.0947 0.52503,-0.16052 0.18463,-0.0714 0.35815,-0.17082 0.5166,-0.28485 0.0501,-0.0361 0.0705,-0.1034 0.12494,-0.13338 0.0385,-0.0213 0.11599,0.0293 0.13336,-0.009 0.0347,-0.0768 -0.0516,-0.17186 -0.0169,-0.2487 0.0164,-0.0363 0.26675,0.0244 0.4001,-0.0271 0.0291,-0.011 0.48269,-0.49582 0.49975,-0.53355 0.0174,-0.0384 -0.0379,-0.093 -0.008,-0.12434 0.0294,-0.0315 0.0889,-0.006 0.13336,-0.009 0.0416,-0.0445 0.0934,-0.0822 0.12494,-0.1334 0.0499,-0.0809 0.0507,-0.18743 0.1165,-0.25774 0.0294,-0.0315 0.0949,0.0122 0.13337,-0.009 0.0545,-0.0301 0.0705,-0.1033 0.12494,-0.13337 0.0385,-0.0213 0.10392,0.0224 0.13336,-0.009 0.2585,-0.276 -0.42098,0.0387 0.11651,-0.25774 0.077,-0.0424 0.18416,0.0139 0.26673,-0.0181 0.38696,-0.14966 0.14682,-0.13488 0.52503,-0.16052"
       id="path7345"
       inkscape:connector-curvature="0" />
    <path
       style="fill:none;stroke:#000000;stroke-width:0.25555179px;stroke-linecap:butt;stroke-linejoin:miter;stroke-opacity:1"
       d="m 101.31982,91.627573 c 0.60294,0.4526 1.4126,0.51094 2.06791,0.85919 0.30106,0.15998 0.54437,0.40257 0.84234,0.56749 0.30757,0.17024 0.65649,0.26896 0.96727,0.43411 0.51516,0.27376 1.11227,0.83082 1.68467,1.13499 0.20759,0.11032 0.46707,0.10928 0.68369,0.2035 0.20112,0.0875 0.3725,0.22459 0.55875,0.33688 0.18624,0.11229 0.39164,0.20099 0.55874,0.33688 0.16711,0.13589 0.28073,0.32071 0.43382,0.47026 0.20106,0.19645 0.61283,0.53827 0.85076,0.69185 0.13149,0.0849 0.27797,0.14772 0.41695,0.22158 0.14461,0.15676 0.26671,0.33438 0.43382,0.47027 0.0334,0.0272 0.0923,-0.0249 0.13336,-0.009 0.16253,0.0627 0.27206,0.26445 0.42539,0.34592 0.17433,0.0926 0.44426,0.15425 0.55875,0.33688 0.0448,0.0714 0.0112,0.1658 0.0169,0.2487"
       id="path7343-2"
       inkscape:connector-curvature="0" />
    <path
       style="fill:none;stroke:#000000;stroke-width:0.25555179px;stroke-linecap:butt;stroke-linejoin:miter;stroke-opacity:1"
       d="m 102.00719,97.799753 c 0.51065,-0.51617 0.87914,-0.69577 1.54138,-0.97891 0.1285,-0.055 0.28243,-0.0676 0.39166,-0.15147 0.1954,-0.15015 0.29492,-0.39482 0.49975,-0.53355 0.1493,-0.10103 0.35481,-0.0947 0.52503,-0.16051 0.36556,-0.14137 0.66765,-0.42834 1.03321,-0.56971 0.74278,-0.28725 0.29077,-0.0287 0.9167,-0.31197 0.09,-0.0407 0.1722,-0.095 0.2583,-0.14244 0.0833,-0.0889 0.14097,-0.20671 0.24987,-0.26677 0.15877,-0.0875 0.35482,-0.0946 0.52504,-0.16051 0.32872,-0.12712 0.43775,-0.4245 0.76647,-0.55163 0.17023,-0.0659 0.35481,-0.0947 0.52504,-0.16052 0.18463,-0.0714 0.35815,-0.17082 0.5166,-0.28485 0.0501,-0.0361 0.0705,-0.1034 0.12494,-0.13338 0.0385,-0.0213 0.11599,0.0293 0.13336,-0.009 0.0347,-0.0768 -0.0516,-0.17186 -0.0169,-0.2487 0.0164,-0.0363 0.26675,0.0244 0.4001,-0.0271 0.0291,-0.011 0.48269,-0.49582 0.49974,-0.53355 0.0174,-0.0384 -0.0379,-0.093 -0.008,-0.12434 0.0294,-0.0315 0.0889,-0.006 0.13337,-0.009 0.0416,-0.0445 0.0934,-0.0822 0.12494,-0.1334 0.0499,-0.0809 0.0507,-0.18743 0.1165,-0.25774 0.0294,-0.0315 0.0949,0.0122 0.13337,-0.009 0.0545,-0.0301 0.0705,-0.1033 0.12494,-0.13337 0.0385,-0.0213 0.10391,0.0224 0.13336,-0.009 0.2585,-0.276 -0.42099,0.0387 0.11651,-0.25774 0.077,-0.0424 0.18416,0.0139 0.26673,-0.0181 0.38696,-0.14966 0.14681,-0.13488 0.52503,-0.16052"
       id="path7345-7"
       inkscape:connector-curvature="0" />
    <path
       style="fill:none;stroke:#000000;stroke-width:0.25555179px;stroke-linecap:butt;stroke-linejoin:miter;stroke-opacity:1"
       d="m 100.78528,79.86771 c 0.60294,0.4526 1.4126,0.51094 2.06791,0.85919 0.30107,0.15998 0.54438,0.40257 0.84234,0.56749 0.30757,0.17024 0.65649,0.26896 0.96727,0.43411 0.51516,0.27376 1.11228,0.83082 1.68467,1.13499 0.20759,0.11032 0.46707,0.10928 0.68369,0.2035 0.20112,0.0875 0.3725,0.22459 0.55875,0.33688 0.18625,0.11229 0.39164,0.20099 0.55875,0.33688 0.1671,0.13589 0.28072,0.32071 0.43381,0.47026 0.20106,0.19645 0.61283,0.53827 0.85076,0.69185 0.1315,0.0849 0.27797,0.14772 0.41696,0.22158 0.1446,0.15676 0.2667,0.33438 0.43381,0.47027 0.0334,0.0272 0.0923,-0.0249 0.13336,-0.009 0.16253,0.0627 0.27206,0.26445 0.42539,0.34592 0.17433,0.0926 0.44426,0.15425 0.55875,0.33688 0.0448,0.0714 0.0112,0.1658 0.0169,0.2487"
       id="path7343-24"
       inkscape:connector-curvature="0" />
    <path
       style="fill:none;stroke:#000000;stroke-width:0.25555179px;stroke-linecap:butt;stroke-linejoin:miter;stroke-opacity:1"
       d="m 101.47265,86.03989 c 0.51066,-0.51617 0.87914,-0.69577 1.54138,-0.97891 0.1285,-0.055 0.28243,-0.0676 0.39167,-0.15147 0.19539,-0.15015 0.29491,-0.39482 0.49974,-0.53355 0.1493,-0.10103 0.35481,-0.0947 0.52503,-0.16051 0.36556,-0.14137 0.66766,-0.42834 1.03321,-0.56971 0.74278,-0.28725 0.29077,-0.0287 0.9167,-0.31197 0.09,-0.0407 0.1722,-0.095 0.2583,-0.14244 0.0833,-0.0889 0.14097,-0.20671 0.24988,-0.26677 0.15876,-0.0875 0.35481,-0.0946 0.52503,-0.16051 0.32873,-0.12712 0.43775,-0.4245 0.76648,-0.55163 0.17022,-0.0659 0.3548,-0.0947 0.52503,-0.16052 0.18463,-0.0714 0.35815,-0.17082 0.5166,-0.28485 0.0501,-0.0361 0.0705,-0.1034 0.12494,-0.13338 0.0385,-0.0213 0.11599,0.0293 0.13336,-0.009 0.0347,-0.0768 -0.0516,-0.17186 -0.0169,-0.2487 0.0164,-0.0363 0.26675,0.0244 0.4001,-0.0271 0.0291,-0.011 0.48269,-0.49582 0.49975,-0.53355 0.0174,-0.0384 -0.0379,-0.093 -0.008,-0.12434 0.0294,-0.0315 0.0889,-0.006 0.13336,-0.009 0.0416,-0.0445 0.0934,-0.0822 0.12494,-0.1334 0.0499,-0.0809 0.0507,-0.18743 0.1165,-0.25774 0.0295,-0.0315 0.0949,0.0122 0.13337,-0.009 0.0545,-0.0301 0.0705,-0.1033 0.12494,-0.13337 0.0385,-0.0213 0.10392,0.0224 0.13336,-0.009 0.2585,-0.276 -0.42098,0.0387 0.11651,-0.25774 0.077,-0.0424 0.18416,0.0139 0.26673,-0.0181 0.38696,-0.14966 0.14682,-0.13488 0.52503,-0.16052"
       id="path7345-2"
       inkscape:connector-curvature="0" />
    <path
       style="fill:#817364;fill-opacity:1;stroke:#000000;stroke-width:0.26458332px;stroke-linecap:butt;stroke-linejoin:miter;stroke-opacity:1"
       d="m 113.10334,137.9142 c 0.52843,4.03517 7.0521,-2.45033 11.45813,-10.04793 1.5914,-2.74415 4.57471,-5.51547 5.49407,-8.12593 0.90341,-2.56519 1.63549,-4.69482 2.87187,-6.40911 l -1.34458,-16.471918 0.25702,-5.840771 1.29378,-6.631451 3.19964,-12.643116 7.43026,11.187473 3.35677,7.306569 -2.52114,27.111834 -11.33204,32.28635 -13.32044,-4.18129 z"
       id="path991"
       inkscape:connector-curvature="0"
       sodipodi:nodetypes="cssccccccccccc" />
    <path
       style="opacity:1;fill:#008080;fill-opacity:1;stroke:#000000;stroke-width:0.23857144;stroke-miterlimit:4;stroke-dasharray:none;stroke-opacity:1"
       d="m 113.80543,149.00524 c 0.0846,-0.69776 2.13817,-7.54568 2.27787,-7.59584 0.0879,-0.0315 0.99301,0.86581 2.01154,1.99409 l 1.85184,2.05142 1.41102,0.45517 c 0.77606,0.25035 1.66909,0.52915 1.98452,0.61956 l 0.57346,0.16443 -1.91982,2.58071 c -1.05591,1.41939 -1.94699,2.58788 -1.98018,2.59666 -0.0332,0.009 -1.45132,-0.57288 -3.15138,-1.29258 -2.51337,-1.06399 -3.08503,-1.35804 -3.05889,-1.57358 z"
       id="path1001"
       inkscape:connector-curvature="0" />
    <path
       style="opacity:1;fill:#bd8a66;fill-opacity:1;stroke:#000000;stroke-width:0.90168732;stroke-miterlimit:4;stroke-dasharray:none;stroke-opacity:1"
       d="m 538.12828,501.0314 c -0.71804,-0.45493 -1.04139,-3.11537 -1.23579,-10.16763 l -0.2633,-9.55149 1.73337,7.5 c 2.60108,11.25446 2.81265,12.85901 1.69385,12.84621 -0.5256,-0.006 -1.39326,-0.28821 -1.92813,-0.62709 z"
       id="path1007"
       inkscape:connector-curvature="0"
       transform="scale(0.26458333)" />
    <path
       style="fill:#817364;fill-opacity:1;stroke:#342009;stroke-width:0.37797621;stroke-opacity:1"
       d="m 88.174361,147.92198 c -0.158806,-0.45137 -10.52845,-7.07938 -16.403251,-22.21803 -2.213019,-5.70269 -3.705093,-9.72193 -4.874653,-14.3851 -1.935211,-7.71593 -0.289287,-19.519749 -0.245238,-19.651513 0.216741,-0.648285 7.572197,-11.606183 7.74066,-11.531751 0.08688,0.03838 1.280138,-1.732146 2.905476,2.676058 2.278069,-2.119154 2.149239,-0.476066 2.149239,-0.476066 0,0 4.957972,-1.79126 4.627991,1.107076 l -1.837185,16.392589 -1.871169,7.218587 1.466835,5.6435 4.91369,9.07142 10.698101,9.30955 2.703343,3.58881 c 0.1564,3.61311 0.0754,4.13235 -0.74288,4.75855 -3.800422,2.90865 -8.442417,6.75299 -8.598455,7.12096 -0.103788,0.24474 -0.673618,0.83895 -1.266209,1.32053 -0.998574,0.81134 -1.098707,0.81536 -1.366288,0.0548 z"
       id="path5644"
       inkscape:connector-curvature="0"
       sodipodi:nodetypes="csscccccccccccccccc" />
    <path
       style="fill:#008080;fill-opacity:1;stroke:#000000;stroke-width:0.26458332px;stroke-linecap:butt;stroke-linejoin:miter;stroke-opacity:1"
       d="m 90.853396,145.86244 5.11256,-6.93118 5.966514,3.92705 -0.97164,3.036 -5.015304,3.5771 z"
       id="path7234"
       inkscape:connector-curvature="0" />
    <path
       style="fill:#e9c6af;fill-opacity:1;stroke:#000000;stroke-width:0.10101525;stroke-miterlimit:4;stroke-dasharray:none;stroke-opacity:1"
       d="m 99.298592,150.44128 c -2.618149,-2.22591 -2.594539,-1.89943 -0.2554,-3.53197 1.114458,-0.77783 2.058038,-1.40946 2.096818,-1.40365 0.0388,0.006 0.79052,0.75796 1.67052,1.67142 l 1.59998,1.66086 -0.87249,0.93676 c -0.47987,0.5152 -1.22247,1.22249 -1.65022,1.57171 l -0.77773,0.63496 z"
       id="path7256"
       inkscape:connector-curvature="0" />
    <path
       style="fill:#74624f;fill-opacity:1;stroke:#766551;stroke-width:0.13363476;stroke-opacity:1"
       d="m 127.94881,89.12413 c -0.91874,-0.507093 -2.82882,-1.590426 -4.24463,-2.40741 -2.39883,-1.384225 -2.58289,-1.517824 -2.70178,-1.961004 -0.53062,-1.978107 -2.4538,-10.508448 -2.93326,-13.010623 -0.15211,-0.793845 -0.27657,-1.675474 -0.27657,-1.959171 0,-0.536152 0.73988,-4.539797 3.53248,-19.114928 l 1.65148,-8.619443 -0.13148,-2.873147 c -0.10787,-2.357073 -0.17139,-2.918905 -0.3536,-3.127891 -0.50955,-0.584404 -7.71679,-6.128573 -9.89222,-7.609589 -0.92636,-0.630652 -1.2474,-0.631573 -6.03759,-0.0173 -7.039435,0.902713 -10.058479,1.379127 -10.41196,1.643038 -0.390533,0.291576 -1.463011,2.297507 -3.799896,7.107214 l -1.720614,3.541321 0.07796,1.603618 c 0.08433,1.734569 0.229386,2.75313 1.760349,12.361217 2.070246,12.992542 3.272867,21.217551 3.278106,22.419741 l 0.0028,0.632254 -1.639779,1.585782 c -0.901879,0.872181 -2.066245,1.935673 -2.587479,2.363317 -1.310579,1.075256 -3.485197,2.532187 -3.779552,2.532187 -0.276878,0 -3.31793,-0.824386 -9.193456,-2.492222 l -4.031734,-1.144452 0.05636,-0.420045 c 0.031,-0.231023 0.298106,-2.254184 0.593569,-4.495906 0.62561,-4.746566 1.371761,-9.684382 1.736643,-11.492589 0.880491,-4.36336 9.003554,-29.916734 11.575973,-36.415472 1.186868,-2.998406 3.03703,-6.853997 4.585052,-9.554887 1.919152,-3.348413 3.877762,-6.465115 4.335005,-6.898209 0.417634,-0.395578 0.511368,-0.42142 1.830863,-0.50479 1.89754,-0.119888 10.43011,-0.480746 11.37662,-0.481137 l 0.76513,-2.65e-4 2.19256,2.171565 c 1.20591,1.194361 2.5454,2.652805 2.97664,3.24099 1.1808,1.610505 10.82547,16.123197 11.06382,16.648149 0.11407,0.251214 0.71933,2.99669 1.34503,6.101054 1.30234,6.461445 1.98989,9.693812 4.59819,21.617191 2.34011,10.697432 3.22091,14.868376 3.22091,15.252332 0,0.370075 -6.52719,13.861626 -7.04316,14.558065 -0.0701,0.09458 -0.67561,-0.170749 -1.77674,-0.77851 z"
       id="path5428"
       inkscape:connector-curvature="0" />
    <ellipse
       style="opacity:1;fill:#f4eed7;fill-opacity:0.76895308;stroke:#000000;stroke-width:0.33399999;stroke-miterlimit:4;stroke-dasharray:none;stroke-opacity:1"
       id="path1025"
       cx="106.77827"
       cy="136.92708"
       rx="12.284225"
       ry="11.90625" />
  </g>
</svg>
